<?xml version="1.0" encoding="UTF-8"?>
<svg width="127px" height="140px" viewBox="0 0 127 140" version="1.1" xmlns="http://www.w3.org/2000/svg" xmlns:xlink="http://www.w3.org/1999/xlink">
    <!-- Generator: sketchtool 50.2 (55047) - http://www.bohemiancoding.com/sketch -->
    <title>C6B8D61D-303A-4B81-AD32-F7E38CCD3668</title>
    <desc>Created with sketchtool.</desc>
    <defs></defs>
    <g id="Main" stroke="none" stroke-width="1" fill="none" fill-rule="evenodd">
        <g id="Marketing-landing-" transform="translate(-657.000000, -2125.000000)">
            <g id="Group-3" transform="translate(20.000000, 1915.000000)">
                <g id="Group-9" transform="translate(265.000000, 210.000000)">
                    <g id="Eye---animation" transform="translate(372.000000, 0.000000)">
                        <path d="M68.2806851,69.6665169 C68.2767691,69.3982652 68.272853,69.1300134 68.2679579,68.8607826 C67.6364893,68.6659575 66.9570488,68.2381253 66.3882376,68.3536498 C65.9731327,68.4388246 65.7039019,69.2406428 65.3700558,69.7223211 C65.4836222,69.8867966 65.5962096,70.0502931 65.709776,70.2147686 C66.5664194,70.0316917 67.4240418,69.8495938 68.2806851,69.6665169 M36.8384474,69.6812022 C32.9066991,72.1708526 30.3044614,75.9351882 27.3859998,79.3842791 C26.7790068,80.0999435 26.4862795,80.778405 27.2606851,81.9649784 C30.9555103,87.6217617 35.8506152,92.0655379 41.1285173,96.1049784 C43.1071187,97.6195239 45.6222236,98.416447 47.6713145,99.8565868 C51.2662795,102.384419 55.2371886,103.787356 59.5341117,104.112391 C62.4976082,104.336587 65.6216642,104.588195 68.4520138,103.907776 C73.0886572,102.791692 77.5666991,101.130293 81.8352306,98.7414819 C86.194811,96.3027407 89.7653005,92.9388246 93.6226432,89.9459575 C96.5176082,87.6991043 98.7204054,84.5495938 101.151315,81.7329505 C101.459706,81.3756078 101.551734,80.3877756 101.286419,80.0539295 C99.6651607,78.0116917 97.9636222,76.0252582 96.182783,74.1191043 C95.2448809,73.1156078 94.0925732,72.3137896 92.9441816,71.3426008 C91.5647411,77.0786847 89.8573285,82.3252582 86.2574684,86.8551882 C83.4212446,90.4246987 80.0494963,93.2325309 76.021804,95.2091742 C71.0170488,97.6655379 65.6265593,98.1971463 60.1665593,97.4560274 C58.286839,97.2005029 56.5059998,96.224419 54.6752306,95.5929505 C53.8420837,95.3051183 52.827818,95.2649784 52.1875383,94.7490344 C49.4501956,92.5442791 46.6335523,90.3835798 44.2183075,87.8528106 C42.5813844,86.1375659 41.5171886,83.8603631 40.2797061,81.7848386 C38.0592865,78.0655379 37.5609649,73.8528106 36.8384474,69.6812022 M68.366839,84.744419 C66.5977481,84.8530903 65.0753705,85.256447 63.7047411,84.9588246 C61.5724334,84.4957477 59.5223635,83.6077756 57.4791467,82.7971463 C56.5764893,82.4388246 55.6062795,81.9865169 54.9591467,81.3012022 C52.8983075,79.1179854 50.9353705,77.0091742 50.261804,73.7343491 C49.7634823,71.3093141 49.234811,68.9763071 49.6675383,66.5786847 C49.932853,65.1101533 50.4057201,63.4428805 51.3632026,62.3874959 C53.0099159,60.572391 55.1069788,59.1655379 57.0150907,57.5873561 C54.3443215,58.4802232 51.6099159,59.4582652 49.048797,60.7730903 C46.8029229,61.925398 44.8399858,63.6377057 42.5813844,64.7577057 C41.0120138,65.5360274 40.7359299,66.6442791 40.7741117,68.0785449 C40.8025033,69.1290344 40.8191467,70.1961673 41.019846,71.2202232 C41.3987271,73.1537896 41.5211047,75.2763071 42.4423635,76.9357477 C44.2839019,80.2497337 46.481804,83.3865169 48.7443215,86.4400833 C50.4997061,88.8102931 53.1636222,90.0565868 55.8363495,91.1716917 C59.0720138,92.5227407 62.3918739,93.5791043 65.9457201,93.4146288 C67.0177481,93.3646987 68.0672586,92.8928106 69.1334124,92.6392442 C70.4306152,92.3298735 71.8736921,92.306377 73.0044614,91.695468 C75.1240418,90.5509924 77.0380278,89.0305728 79.0861397,87.7441393 C83.9929928,84.6621812 86.1204054,79.6290344 88.3506152,74.665398 C88.480825,74.3736498 88.4524334,74.010433 88.4896362,73.6795239 C88.6580278,72.2100134 88.8802656,70.742461 88.9585872,69.2680554 C88.9859998,68.7579854 88.7862795,68.1206428 88.4641816,67.7270763 C86.4229229,65.2295938 83.3664194,64.1125309 80.8473984,62.2553281 C80.3471187,61.8862372 79.7048809,61.7090344 79.0048809,61.3869365 C79.9124334,65.1033001 82.1475383,68.4026008 80.4117341,72.3930903 C76.3987271,69.6821812 72.1820837,69.810433 68.9963495,72.6730903 C66.2032026,75.1852582 64.6387271,79.0347686 68.366839,84.744419 M63.9680977,108.541482 C58.3093565,108.671692 53.8753705,107.44302 49.5657201,105.605398 C48.0883774,104.975888 46.4230628,104.690013 45.079846,103.86372 C42.3571886,102.187636 39.6746712,100.397985 37.1967691,98.3841393 C34.0805453,95.850433 31.033832,93.191412 28.2446012,90.3091742 C26.2376082,88.2346288 24.6780278,85.722461 22.9676781,83.3688945 C22.4341117,82.6346288 21.561804,81.662461 21.7184474,81.009454 C22.0425033,79.6633001 22.7571886,78.2877756 23.6647411,77.2284749 C25.9605453,74.5498735 28.418867,72.005398 30.8771886,69.4697337 C32.947818,67.3344889 34.9322935,65.0563071 37.2711746,63.2529505 C41.6385872,59.8851183 46.1577481,56.7571463 51.5746712,55.0859575 C54.0310348,54.3272162 56.3229229,53.1778456 58.9799858,52.9810624 C63.4805453,52.6481952 67.8391467,53.1337896 72.2094963,54.2391043 C76.7364893,55.3835798 80.6496362,57.7195239 84.702783,59.8674959 C88.5219439,61.8891742 91.6039019,64.7792442 94.8190068,67.5420414 C96.3247411,68.8363071 98.0037621,69.9553281 99.3685173,71.3798036 C101.836629,73.9546288 104.489776,76.3845589 106.228517,79.5967267 C107.121384,81.246377 106.33621,82.5083351 105.315091,83.4423211 C102.341804,86.1610624 100.397468,89.7912721 97.0570488,92.2153281 C94.0749509,94.3799435 91.5353705,97.1505728 88.5846012,99.3660973 C85.8619439,101.410293 83.0629229,103.681622 79.9232026,104.766377 C74.4847411,106.644139 69.1011047,109.275748 63.9680977,108.541482 Z M60.8508949,42.8228386 C65.4963495,42.7846568 69.9665593,43.4063351 74.3173285,44.8464749 C77.0155103,45.7383631 79.6432026,46.855426 82.3619439,47.6699714 C85.8501956,48.7155659 89.0006851,50.4415798 91.8574684,52.5719295 C96.1446012,55.768433 100.834112,58.4578036 104.287119,62.7478735 C106.724881,65.7769645 109.593412,68.4575239 112.23579,71.3250763 C112.550056,71.6657756 112.908377,72.2825589 112.798727,72.6310903 C112.534391,73.4769645 112.052713,74.8642372 111.573972,74.900461 C110.692853,74.9670344 109.518028,74.4422791 108.871874,73.7726288 C105.233832,70.00144 102.119566,65.7329085 97.7776082,62.6392022 C95.618867,61.1001812 93.7841816,59.0941673 91.5833425,57.6295519 C86.9378879,54.5387826 82.2659998,51.4450763 76.7717341,49.9510903 C74.4387271,49.3157057 72.1713145,48.4071742 69.813832,47.9059155 C68.1064194,47.5417197 66.3001257,47.5495519 64.539846,47.5593421 C62.067818,47.5720693 59.5722935,47.5593421 57.1325732,47.8912302 C54.6164893,48.2329085 52.1395663,48.9133281 49.6773285,49.5663351 C48.3556502,49.9178036 47.0721537,50.4601812 45.8219439,51.0280134 C43.5613844,52.0550064 41.1784474,52.9263351 39.1371886,54.2959854 C35.5167691,56.7259155 32.1900558,59.5895519 28.5990068,62.067454 C25.1969089,64.4151463 23.0587271,67.9190624 20.1755103,70.7317896 C19.6350907,71.2585029 19.3296362,72.0201812 18.8841816,72.6516498 C18.5053005,73.1891323 18.1342516,73.7481533 17.6672586,74.203398 C16.7890767,75.0629784 15.7797061,75.1197617 14.8241816,74.342419 C13.8177481,73.5219994 13.8461397,72.4411603 14.5559299,71.5208805 C15.9363495,69.7351463 17.4391467,68.043398 18.899846,66.3193421 C20.2107551,64.7715099 21.3630628,63.0347267 22.8854404,61.7336078 C25.854811,59.1950064 29.0043215,56.8629784 32.1362096,54.5211603 C34.348797,52.8666148 36.5251607,51.0847966 38.9580278,49.8218596 C41.4280977,48.5393421 43.6720138,46.7359854 46.6266991,46.3482931 C48.2264194,46.1378036 49.6939718,45.0647966 51.2936921,44.6917896 C54.4529928,43.9545868 57.6622236,43.4327686 60.8508949,42.8228386 Z M64.646853,2.90599942 C64.646853,8.32585956 64.6820977,13.7457197 64.6360837,19.1646008 C64.5949649,24.0763491 64.4334264,28.9871183 64.3893705,33.8998456 C64.3756642,35.4447407 64.5166432,36.997468 64.6879718,38.5355099 C64.8201397,39.7093561 64.1749649,40.1215239 63.2586012,39.9462791 C62.874825,39.8728526 62.3520278,39.0680973 62.3657341,38.6099155 C62.5125872,33.4818036 62.8376222,28.3585868 62.9365033,23.2304749 C63.0020977,19.7764889 62.7426572,16.3185868 62.7044753,12.8616638 C62.6604194,8.93383159 62.6643355,5.00404138 62.7602795,1.07718823 C62.7690907,0.684600817 63.5092306,0.157887531 64.0065732,0.00418123708 C64.2131467,-0.0604341475 64.8377621,0.638586831 64.974825,1.08208333 C65.1481117,1.64012529 65.0169229,2.29313229 65.0169229,2.9050204 C64.8935663,2.9050204 64.7702096,2.90599942 64.646853,2.90599942 Z M112.097356,56.0836777 C110.926447,55.490391 110.978335,54.8931882 111.615678,54.1305309 C112.880573,52.6169645 114.149384,51.103398 115.332042,49.5271742 C118.349384,45.504377 121.321692,41.4482931 124.305748,37.4000414 C124.501552,37.1347267 124.576937,36.7440973 124.820713,36.5590624 C125.266168,36.2203211 125.794839,35.9912302 126.289245,35.7171043 C126.319594,36.2653561 126.587846,36.9761253 126.341133,37.335426 C124.782531,39.6145868 123.111342,41.815426 121.475398,44.0407407 C119.426308,46.8309505 117.410503,49.6456358 115.309524,52.3966847 C114.312881,53.7017197 113.152741,54.882419 112.097356,56.0836777 Z M111.577496,92.7757197 C113.576657,94.8835519 115.529804,96.8249505 117.341972,98.8906847 C118.828126,100.58537 120.194839,102.393622 121.501832,104.232223 C121.792601,104.641454 121.608545,105.388447 121.64379,105.979776 C121.16407,105.731104 120.566867,105.589146 120.223231,105.21516 C117.135398,101.852223 114.125888,98.4178176 111.017496,95.074461 C110.000294,93.9808945 110.58379,93.4766987 111.577496,92.7757197 Z M28.7249089,33.8072302 C28.447846,34.2115659 28.217776,34.7226148 27.8261677,35.0212162 C27.6969369,35.1181393 26.9705033,34.7529645 26.8197341,34.4484889 C24.6923215,30.1633141 22.614839,25.8536638 20.5353984,21.5440134 C20.3934404,21.2512861 20.2142795,20.9066707 20.2544194,20.6129645 C20.3063075,20.2252721 20.5569369,19.8649924 20.7223914,19.4929645 C21.0562376,19.7152022 21.5359579,19.8610763 21.7014124,20.172405 C23.036797,22.7002372 24.2860278,25.2740833 25.6174963,27.8038735 C26.3860278,29.2665309 27.2769369,30.6645728 28.07386,32.1135239 C28.3352586,32.5903071 28.4713425,33.1356218 28.7249089,33.8072302 Z M65.3062236,124.837678 C63.8083215,125.031524 63.2551746,124.712363 63.2923774,123.25558 C63.3716781,120.108027 63.1895802,116.954601 63.1699998,113.803132 C63.1651047,112.99544 63.2845453,112.161314 63.5136362,111.388867 C63.6105593,111.062853 64.2567131,110.58509 64.4437061,110.66537 C64.8313984,110.830825 65.3375523,111.322293 65.3404893,111.682573 C65.3581117,113.766909 65.2034264,115.852223 65.183846,117.937538 C65.1681816,119.607748 65.2660837,121.278936 65.3042656,122.950125 C65.3179718,123.553202 65.3062236,124.156279 65.3062236,124.837678 Z M89.18386,45.0308246 C87.7153285,44.7106847 87.4823215,43.8618735 88.3213425,42.1632721 C89.5774264,39.6178176 90.7150488,37.0146008 91.940783,34.4534819 C92.6026012,33.0691463 93.2712725,31.6769784 94.0916921,30.3866288 C94.316867,30.0312442 95.1000837,30.0312442 95.627776,29.8687267 C95.6943495,30.4199155 95.9890348,31.0787966 95.7893145,31.5046707 C94.8523914,33.4999155 93.7363075,35.4109645 92.7660977,37.3915239 C91.5540698,39.8664889 90.4223215,42.3806148 89.18386,45.0308246 Z M34.0393285,121.633636 C34.7579299,120.071118 35.464783,118.502727 36.1980698,116.948041 C37.1584893,114.908741 38.1893984,112.900769 39.0842236,110.834055 C39.3759718,110.160489 39.2663215,109.325384 39.4650628,108.59895 C39.7235243,107.653216 40.0309369,106.702587 40.4812865,105.83909 C40.6075802,105.597272 41.3966712,105.475874 41.7217061,105.632517 C41.995832,105.763706 42.2679998,106.470559 42.1495383,106.764265 C40.7417061,110.245664 39.2614264,113.698671 37.796811,117.158531 C37.3014264,118.327482 36.8755523,119.536573 36.2675802,120.643846 C35.9327551,121.252797 35.2836642,121.68944 34.7755523,122.204405 C34.530797,122.014475 34.2850628,121.823566 34.0393285,121.633636 Z M96.2160698,28.5502791 C96.0114544,27.9981113 95.6129928,27.4811882 95.7324334,27.1541952 C96.598867,24.7918176 97.5553705,22.4627267 98.512853,20.1346148 C99.0963495,18.7189505 99.7376082,17.3267826 100.339706,15.9189505 C100.511035,15.5175519 100.521804,14.9683211 100.807678,14.7137756 C101.227678,14.3397896 101.828797,14.170419 102.352573,13.9139155 C102.371175,14.4699994 102.553273,15.0838456 102.379986,15.571398 C101.579147,17.8290204 100.742084,20.0778316 99.7963495,22.2767127 C98.9563495,24.2318176 97.9636222,26.1213281 97.0139718,28.0274819 C96.9336921,28.1890204 96.6703355,28.2604889 96.2160698,28.5502791 Z M10.4661677,105.5773 C10.246867,105.430447 9.86113269,105.300237 9.84253129,105.131846 C9.79945437,104.731426 9.80337045,104.22723 10.0119019,103.912964 C11.5323215,101.624013 13.1535802,99.4016358 14.6426712,97.0940833 C15.2212725,96.1963211 15.5374963,95.1301673 15.9800138,94.1442931 C16.1376362,93.7918456 16.2267271,93.3228945 16.501832,93.1290484 C17.0402935,92.7491882 17.6884054,92.5249924 18.2914823,92.2361812 C18.2924614,92.8235938 18.507846,93.5284889 18.2591746,93.9768805 C17.0099439,96.2286288 15.6667271,98.430447 14.3019718,100.614643 C13.4247691,102.019538 12.4379159,103.354922 11.5333005,104.742195 C11.2895243,105.116181 11.1642096,105.56751 10.9850488,105.983594 C10.8117621,105.848489 10.6394544,105.712405 10.4661677,105.5773 Z M65.1054264,129.212433 C65.2806712,131.514111 65.458853,133.81579 65.6292026,136.117468 C65.6536781,136.448377 65.7623495,136.851734 65.6213705,137.101384 C65.224867,137.798447 64.7187131,138.432853 64.2556362,139.090755 C64.0911607,138.438727 63.8493425,137.79551 63.7759159,137.132713 C63.5830488,135.378307 63.3970348,133.619006 63.3324194,131.856769 C63.267804,130.098447 63.3099019,128.331314 63.4166152,126.573971 C63.4361956,126.254811 63.9883635,125.738867 64.3065453,125.730055 C64.6149369,125.722223 65.1631886,126.214671 65.2131187,126.54558 C65.3423495,127.412013 65.2561956,128.310755 65.2561956,129.196769 C65.2062656,129.201664 65.1553565,129.207538 65.1054264,129.212433 Z M9.8103215,52.7478596 C8.7275243,51.8745728 7.57717465,51.0717756 6.57563618,50.1133141 C4.63325856,48.2531742 2.74472709,46.3323351 0.901230591,44.3733141 C0.449901919,43.8945728 0.194377444,43.1916358 0.00151031086,42.5454819 C-0.0376505283,42.4172302 0.695636185,41.8180693 0.934517304,41.8905169 C1.57185996,42.083384 2.29339842,42.3937337 2.69773409,42.8891183 C4.39731451,44.9675798 5.97745437,47.1429645 7.64472709,49.2488386 C7.89829353,49.5689784 8.44262919,49.6463211 8.74220961,49.9459015 C9.38151031,50.5871603 9.94738444,51.2998875 10.5436082,51.9832442 C10.299832,52.2377896 10.0550767,52.4933141 9.8103215,52.7478596 Z M98.3438739,114.265524 C98.1186991,114.537692 97.9356222,114.917552 97.6370208,115.066363 C97.4343635,115.167202 96.9840138,115.032097 96.7960418,114.847062 C96.3251327,114.385943 95.9041537,113.861188 95.5272306,113.317832 C93.6152026,110.563846 91.7012166,107.80986 89.853804,105.011818 C89.6247131,104.665244 89.7891886,104.05923 89.7715663,103.572657 C90.2512865,103.710699 90.9454124,103.691118 91.1784194,104.0093 C93.4849928,107.16958 95.7161816,110.384685 97.9649928,113.587062 C98.0883495,113.764265 98.1774404,113.965943 98.3438739,114.265524 Z M29.0657061,36.1887966 C29.8469649,36.906419 30.2405313,37.1462791 30.4627691,37.4948106 C31.0854264,38.4718735 31.6552166,39.4851603 32.2122795,40.501384 C33.167804,42.2411043 34.1370348,43.9759295 35.0103215,45.7577477 C35.2168949,46.1806847 35.0671047,46.7788666 35.080811,47.2967686 C34.6833285,47.0402652 34.1438879,46.8738316 33.9108809,46.5115938 C32.1829089,43.8310344 30.4774544,41.1338316 28.87186,38.3798456 C28.6339579,37.9725728 28.9540977,37.2402652 29.0657061,36.1887966 Z M18.3951607,61.1939714 C17.1194963,60.2237617 15.9632725,59.4650204 14.9539019,58.5447407 C13.7320837,57.4335519 12.5856502,56.226419 11.5116642,54.9713141 C11.1925033,54.5983071 11.22579,53.9227826 11.0975383,53.3853001 C11.6790767,53.4978875 12.4407551,53.4166288 12.811804,53.7592861 C14.2196362,55.0564889 15.5334823,56.4623631 16.8169788,57.8868386 C17.4895663,58.6328526 18.0290068,59.4973281 18.6134823,60.3187267 C18.6546012,60.3755099 18.5684474,60.5223631 18.3951607,61.1939714 Z M102.77972,122.22702 C102.315664,122.080167 101.68028,122.075272 101.416923,121.760027 C100.29007,120.407999 99.1622376,119.028559 98.2752446,117.517929 C97.96979,116.999048 98.3643355,116.069957 98.4387411,115.328839 C98.6090907,115.344503 98.7804194,115.360167 98.9507691,115.376811 C100.317482,117.467999 101.684196,119.559188 103.050909,121.651356 C102.95986,121.843244 102.86979,122.035132 102.77972,122.22702 Z M110.551287,92.2630064 C109.735762,92.5175519 109.140517,92.8562931 109.002475,92.7221673 C107.684713,91.4465029 106.353245,90.1610484 105.22737,88.7209085 C104.791706,88.1638456 105.456461,87.062447 106.073245,87.5656638 C107.621077,88.8305589 108.875203,90.4547547 110.551287,92.2630064 Z M34.9357201,124.169985 C34.3992166,125.741314 33.9576781,127.207888 33.3673285,128.611804 C33.2566991,128.874181 32.5537621,128.887888 32.1239718,129.016139 C32.0750208,128.647048 31.899776,128.239776 31.9976781,127.914741 C32.4069089,126.563692 32.8631327,125.222433 33.388867,123.912503 C33.4926432,123.652083 34.0046712,123.368167 34.2729229,123.41516 C34.5362795,123.461174 34.7281677,123.914461 34.9357201,124.169985 Z M22.9179439,87.4931183 C21.6373844,89.1182931 20.8571047,90.4223491 19.7684334,91.3729784 C19.1232586,91.9368945 18.3439579,91.120391 18.6709509,90.4272442 C19.2240977,89.2553561 20.0650767,88.1931183 20.9344474,87.2170344 C21.1273145,87.0006707 21.9408809,87.339412 22.9179439,87.4931183 Z M110.807203,56.121468 C111.587482,57.7133561 109.843846,60.2881812 107.618531,60.9989505 C107.438391,59.8280414 109.138951,57.1690204 110.807203,56.121468 Z" id="Combined-Shape" fill="#FFFFFF" opacity="0.800000012"></path>
                        <ellipse id="Oval" fill="#FFF601" opacity="0.800000012" transform="translate(66.573427, 70.489510) rotate(12.000000) translate(-66.573427, -70.489510) " cx="66.5734266" cy="70.4895105" rx="16.6433566" ry="14.6853147"></ellipse>
                        <circle id="Oval-2" fill="#000000" cx="74.8951049" cy="78.8111888" r="8.32167832"></circle>
                    </g>
                </g>
            </g>
        </g>
    </g>
</svg>