<svg width="34px" height="31px" viewBox="0 0 34 31" xmlns="http://www.w3.org/2000/svg">
    <g stroke="none" stroke-width="1" fill="none" fill-rule="evenodd" opacity="0.400000006">
        <g transform="translate(-1068.000000, -6697.000000)" fill="#FFFFFF">
            <g transform="translate(735.000000, 6253.000000)">
                <g transform="translate(60.000000, 147.000000)">
                    <g transform="translate(240.000000, 262.000000)">
                        <path d="M33.854177,44.8772248 L40.4579752,44.8772248 L40.4579752,65.801805 L33.854177,65.801805 L33.854177,44.8772248 Z M58.5013155,44.6760799 C63.1946965,44.6760799 66.8823529,47.6859056 66.8823529,54.1675474 L66.8823529,65.801805 L59.3940682,65.801805 L59.3940682,54.9739639 C59.3940682,52.139566 58.2230192,50.2052684 55.6467112,50.2052684 C53.6765934,50.2052684 52.5808588,51.5104141 52.0711081,52.7687178 C51.8800663,53.220605 51.9094574,53.8497568 51.9094574,54.4789087 L51.9094574,65.801805 L44.4909764,65.801805 C44.4909764,65.801805 44.5864972,46.6213991 44.4909764,44.8772248 L51.9094574,44.8772248 L51.9094574,48.161673 C52.3475675,46.7251862 54.7181382,44.6760799 58.5013155,44.6760799 Z M37.0339196,35 C39.4706201,35 40.9686445,36.5623172 41.0164049,38.6270375 C41.0164049,40.6550189 39.4706201,42.2605042 36.9879961,42.2605042 L36.9402357,42.2605042 C34.5503771,42.2605042 33,40.6605297 33,38.6325483 C33,36.5659911 34.5953821,35 37.0339196,35 Z" id="Fill-88-Copy"></path>
                    </g>
                </g>
            </g>
        </g>
    </g>
</svg>
