<svg width="90px" height="112px" viewBox="0 0 90 112" xmlns="http://www.w3.org/2000/svg">
    <g stroke="none" stroke-width="1" fill="none" fill-rule="evenodd">
        <path d="M16.5137615,111.46789 L16.5137615,102.398006 L22.5418685,102.398006 L22.5418685,103.996335 L18.5964336,103.996335 L18.5964336,106.114756 L21.7527815,106.114756 L21.7527815,107.611604 L18.5964336,107.611604 L18.5964336,109.869561 L22.7488421,109.869561 L22.7488421,111.46789 L16.5137615,111.46789 Z M26.2007244,111.46789 L26.2007244,102.398006 L28.2963324,102.398006 L28.2963324,109.856876 L32.0606653,109.856876 L32.0606653,111.46789 L26.2007244,111.46789 Z M35.4349326,111.46789 L35.4349326,102.398006 L41.4630396,102.398006 L41.4630396,103.996335 L37.5176047,103.996335 L37.5176047,106.114756 L40.6739526,106.114756 L40.6739526,107.611604 L37.5176047,107.611604 L37.5176047,109.869561 L41.6700132,109.869561 L41.6700132,111.46789 L35.4349326,111.46789 Z M45.1218955,111.46789 L45.1218955,102.398006 L47.2175035,102.398006 L47.2175035,106.305033 L50.4514665,102.385321 L52.6764331,102.385321 L49.015587,106.685588 L52.857535,111.46789 L50.412659,111.46789 L47.2175035,107.395956 L47.2175035,111.46789 L45.1218955,111.46789 Z M55.986021,111.46789 L55.986021,102.398006 L62.014128,102.398006 L62.014128,103.996335 L58.0686932,103.996335 L58.0686932,106.114756 L61.225041,106.114756 L61.225041,107.611604 L58.0686932,107.611604 L58.0686932,109.869561 L62.2211016,109.869561 L62.2211016,111.46789 L55.986021,111.46789 Z M65.672984,111.46789 L65.672984,102.398006 L68.1049241,102.398006 L71.6234759,108.372713 L71.6234759,102.398006 L73.4862385,102.398006 L73.4862385,111.46789 L71.3906305,111.46789 L67.5357466,105.011148 L67.5357466,111.46789 L65.672984,111.46789 Z" id="Eleken-Copy" fill="#FFFFFF"></path>
        <g fill="#FFF601">
            <rect id="Rectangle-2-Copy-3" x="0" y="0" width="90" height="90"></rect>
        </g>
        <path d="M63.7864979,46.0035806 L57.8624492,48.3894463 C57.8624492,48.3894463 57.7015243,48.4620164 57.4701947,48.5763392 C57.2284952,48.6883043 56.9934335,48.8137648 56.7661482,48.952113 C56.4927216,49.1013166 56.2335145,49.2746672 55.991697,49.4700447 L55.991697,49.4700447 C55.2588168,50.0305129 54.6351475,50.7180209 54.1511182,51.4990247 C51.034416,56.1054555 45.0665229,57.9049796 39.8790892,55.80253 C37.0206157,54.7157419 34.7272543,52.5341382 33.5191233,49.752491 C32.3109923,46.9708439 32.290469,43.8248709 33.462208,41.0280564 C35.0739154,37.4096206 38.415379,34.8322244 42.358205,34.1662403 C46.3010311,33.5002561 50.3188314,34.8345964 53.0548172,37.7186618 L39.0141178,43.8622661 L39.0141178,43.8622661 C40.7528899,47.7370615 45.300825,49.5342455 49.2630237,47.9122732 L63.5752839,41.7050458 C62.2646277,35.4115732 57.8210696,30.2010305 51.7674178,27.8590716 C41.8304437,23.8761666 30.492563,28.4482248 26.2105287,38.1650175 C24.2575915,42.8271862 24.2925501,48.0713488 26.3074727,52.7076773 C28.3223954,57.3440057 32.1464589,60.9794364 36.912036,62.7891402 C46.8465553,66.7742877 58.1842619,62.2062688 62.4689251,52.4921413 C63.3483923,50.4398705 63.796657,48.232332 63.7864979,46.0035806 L63.7864979,46.0035806 Z M71.0080037,60.7532014 C71.0452339,62.2008063 70.1915965,63.5264492 68.8489851,64.1060154 C67.5063738,64.6855817 65.9423674,64.4035652 64.8933027,63.3927399 C63.844238,62.3819145 63.5191907,60.8437351 64.0711936,59.5023789 C64.6231966,58.1610226 65.942237,57.2838183 67.4073086,57.283755 C68.3503694,57.2715499 69.2596748,57.6303029 69.9350115,58.281023 C70.6103482,58.931743 70.996342,59.8210743 71.0080037,60.7532014 L71.0080037,60.7532014 Z" id="logo_v1-copy-4" fill="#000000" fill-rule="nonzero"></path>
    </g>
</svg>
