<?xml version="1.0" encoding="UTF-8"?>
<svg width="101px" height="28px" viewBox="0 0 101 28" version="1.1" xmlns="http://www.w3.org/2000/svg" xmlns:xlink="http://www.w3.org/1999/xlink">
    <!-- Generator: sketchtool 50.2 (55047) - http://www.bohemiancoding.com/sketch -->
    <title>56DDAD57-5962-43CE-BD2F-D79C9CCF012A</title>
    <desc>Created with sketchtool.</desc>
    <defs></defs>
    <g id="Main" stroke="none" stroke-width="1" fill="none" fill-rule="evenodd">
        <g id="Marketing-landing---1980" transform="translate(-90.000000, -6376.000000)">
            <g id="Group-14" transform="translate(20.000000, 5628.000000)">
                <g id="Group-8">
                    <g id="Group-2" transform="translate(0.000000, 725.000000)">
                        <g id="Logo" transform="translate(70.000000, 23.000000)">
                            <g id="Logo-Copy" stroke-width="1">
                                <rect id="Rectangle-2-Copy-3" fill="#FFF601" x="0" y="0" width="27.9692308" height="28"></rect>
                                <path d="M19.5208398,14.1838735 L17.689325,14.9265014 C17.689325,14.9265014 17.6395725,14.9490897 17.5680532,14.9846739 C17.4933279,15.0195244 17.4206548,15.0585754 17.3503859,15.1016378 C17.2658517,15.1480792 17.1857137,15.2020365 17.1109519,15.26285 L17.1109519,15.26285 C16.8843703,15.4373021 16.6915529,15.6512968 16.5419074,15.8943932 C15.5783289,17.3281973 13.7332589,17.8883197 12.1294805,17.2339083 C11.2457375,16.8956331 10.536708,16.216584 10.1631949,15.3507646 C9.78968185,14.4849452 9.78333675,13.5057252 10.1455986,12.6351848 C10.6438839,11.5089054 11.676951,10.7066615 12.895939,10.4993663 C14.1149269,10.2920711 15.3570944,10.7073998 16.2029684,11.605098 L11.8620607,13.5173649 L11.8620607,13.5173649 C12.39963,14.7234392 13.8056972,15.2828332 15.0306745,14.7779758 L19.4555396,12.8459055 C19.0503292,10.8869904 17.6765318,9.26514953 15.8049482,8.53618811 C12.7327731,7.29646348 9.22748524,8.71956875 7.90362557,11.7440313 C7.29984368,13.1951845 7.31065168,14.8274899 7.93359737,16.2706001 C8.55654306,17.7137102 9.73881368,18.8452794 11.2121684,19.4085704 C14.2835845,20.648993 17.7888186,19.227145 19.113491,16.203512 C19.3853924,15.5647193 19.5239806,14.8775978 19.5208398,14.1838735 L19.5208398,14.1838735 Z M21.7534842,18.7748612 C21.7649946,19.2254447 21.5010788,19.6380662 21.085989,19.8184628 C20.6708991,19.9988594 20.1873614,19.9110786 19.8630262,19.5964477 C19.538691,19.2818167 19.4381975,18.8030409 19.608858,18.3855284 C19.7795186,17.968016 20.1873211,17.6949761 20.6402715,17.6949564 C20.9318339,17.6911575 21.2129603,17.8028234 21.4217515,18.0053675 C21.6305427,18.2079115 21.7498788,18.484726 21.7534842,18.7748612 L21.7534842,18.7748612 Z" id="logo_v1-copy" fill="#000000" fill-rule="nonzero"></path>
                            </g>
                            <path d="M37.2923077,19.2888889 L37.2923077,9.03656114 L44.03305,9.03656114 L44.03305,10.8432651 L39.6211908,10.8432651 L39.6211908,13.2378647 L43.1506781,13.2378647 L43.1506781,14.9298572 L39.6211908,14.9298572 L39.6211908,17.482185 L44.2644918,17.482185 L44.2644918,19.2888889 L37.2923077,19.2888889 Z M48.1244513,19.2888889 L48.1244513,9.03656114 L50.4677995,9.03656114 L50.4677995,17.4678461 L54.6771472,17.4678461 L54.6771472,19.2888889 L48.1244513,19.2888889 Z M58.4503161,19.2888889 L58.4503161,9.03656114 L65.1910584,9.03656114 L65.1910584,10.8432651 L60.7791991,10.8432651 L60.7791991,13.2378647 L64.3086865,13.2378647 L64.3086865,14.9298572 L60.7791991,14.9298572 L60.7791991,17.482185 L65.4225002,17.482185 L65.4225002,19.2888889 L58.4503161,19.2888889 Z M69.2824597,19.2888889 L69.2824597,9.03656114 L71.6258079,9.03656114 L71.6258079,13.4529485 L75.2420859,9.02222222 L77.7300852,9.02222222 L73.6364585,13.8831161 L77.9325968,19.2888889 L75.1986906,19.2888889 L71.6258079,14.6860956 L71.6258079,19.2888889 L69.2824597,19.2888889 Z M81.4309286,19.2888889 L81.4309286,9.03656114 L88.1716709,9.03656114 L88.1716709,10.8432651 L83.7598116,10.8432651 L83.7598116,13.2378647 L87.289299,13.2378647 L87.289299,14.9298572 L83.7598116,14.9298572 L83.7598116,17.482185 L88.4031127,17.482185 L88.4031127,19.2888889 L81.4309286,19.2888889 Z M92.2630722,19.2888889 L92.2630722,9.03656114 L94.9825133,9.03656114 L98.9170238,15.7901924 L98.9170238,9.03656114 L101,9.03656114 L101,19.2888889 L98.6566518,19.2888889 L94.3460484,11.9903786 L94.3460484,19.2888889 L92.2630722,19.2888889 Z" id="Eleken-Copy-2" fill="#FFFFFF"></path>
                        </g>
                    </g>
                </g>
            </g>
        </g>
    </g>
</svg>