<svg width="36px" height="30px" version="1.1" xmlns="http://www.w3.org/2000/svg">
    <g stroke="none" stroke-width="1" fill="none" fill-rule="evenodd" opacity="0.600000024">
        <g transform="translate(-947.000000, -6697.000000)" fill="#FFFFFF">
            <g transform="translate(735.000000, 6253.000000)">
                <g transform="translate(60.000000, 147.000000)">
                    <g transform="translate(120.000000, 262.000000)">
                        <path d="M64.3156804,42.2851664 C64.3287387,42.6022371 64.3362006,42.921173 64.3362006,43.241974 C64.3362006,53.0002921 56.9078661,64.2507078 43.3234532,64.2507078 C39.1522438,64.2507078 35.2701834,63.0290529 32,60.9345209 C32.5782983,61.0016653 33.1659239,61.0371026 33.762877,61.0371026 C37.2233392,61.0371026 40.4077106,59.8564804 42.9354337,57.8757209 C39.7025599,57.816037 36.9752306,55.6804723 36.036895,52.7466355 C36.4864753,52.8342962 36.9491139,52.8809243 37.4248109,52.8809243 C38.0982485,52.8809243 38.7511659,52.7895333 39.3705047,52.6216723 C35.9921235,51.9427679 33.4476112,48.9585728 33.4476112,45.3812689 L33.4476112,45.2880128 C34.4437766,45.8400889 35.5817183,46.1720806 36.7924137,46.2112481 C34.8112758,44.8870115 33.5073065,42.6264837 33.5073065,40.0656713 C33.5073065,38.7115927 33.8710747,37.4433098 34.5072028,36.3522134 C38.1504819,40.8191805 43.5920821,43.7604779 49.7295056,44.068223 C49.6045186,43.5273376 49.5392269,42.9640708 49.5392269,42.3840179 C49.5392269,38.3068612 52.8448544,35 56.9246554,35 C59.0494352,35 60.9690123,35.8971237 62.3158877,37.3332676 C63.9985491,37.0012759 65.5786092,36.3876507 67.0057001,35.5408854 C66.455384,37.2642581 65.2838636,38.7115927 63.7579024,39.6255025 C65.2521505,39.4483159 66.6755104,39.0510449 68,38.4635315 C67.009431,39.9444383 65.7576951,41.2444283 64.3156804,42.2851664" id="Twitter-Copy"></path>
                    </g>
                </g>
            </g>
        </g>
    </g>
</svg>
