<svg id="a698618f-28a8-4eda-b7b7-a52835064028" data-name="Слой 1" xmlns="http://www.w3.org/2000/svg" viewBox="0 0 836 1006"><title>Party</title><path d="M428.12,565.29c.43-.22.84-.46,1.25-.72,1,4.35,3.46,8.72,5.37,12.58a145.93,145.93,0,0,0,9.09,15.68c5.1,7.7,11.29,18.15,20.69,20.92a1.35,1.35,0,0,0,.9,0c5.28,1.74,9.32-3.84,12.27-7.69a182.17,182.17,0,0,0,14.59-21.43c7.09-12.64,12.4-28.38,9.36-43,0,0,0-.09,0-.14-.1-.52-.23-1-.37-1.53s-.34-1.28-.54-1.92a1.62,1.62,0,0,0-.36-.64,21.71,21.71,0,0,0-10.18-10.93,1.33,1.33,0,0,0-1.49-.83c-4.65,1.08-5.13,6.13-3.59,10,1.15,2.86,3.06,5.23,3.85,8.27a18.47,18.47,0,0,1-.62,11.26c-2.57,6.6-8.16,12.43-12.34,18.07-.77,1-5.86,9.32-6.94,9.12-.56-.1-2.12-4.92-2.41-5.58q-.72-1.65-1.48-3.27a289.9,289.9,0,0,0-11-29c-4.5-10.65-9.89-21.22-18.5-29.14a6.57,6.57,0,0,0-1.8-2.53c-2.37-2.06-5.66-2.5-8-4.67l-.17-.14a83.19,83.19,0,0,0,.07-13.56,1.79,1.79,0,0,0,.59-.16c8.19-3.88,16.16-10.36,20.85-18.42a5.63,5.63,0,0,0,1.53,1.24c2.74,1.51,6.15,0,7.61-2.57a5.61,5.61,0,0,0-1.95-7.67,4.09,4.09,0,0,0-.86-.34c5.92-10.78,8.26-24.27,4-35.84a34.23,34.23,0,0,0-10.36-14.68c-3.29-2.67-8.17-5.71-12.76-5.94,6.47-15-8.2-29.9-23.56-27.35-7,1.15-13.16,6.24-13.93,13.54-.71,6.76,4,11.86,9.35,15.27a28,28,0,0,0-24.34,17.84c-3.3,8.93-2.09,22.91,6.75,28.34a7.34,7.34,0,0,0-5.13,6.45,7.73,7.73,0,0,0,3.87,7.47c2.8,1.57,6.21,1.44,9.3.88.29,6.74,4.43,14.69,10,18.7-3.58,5.82-7.45,11.17-14.27,13.41a1.94,1.94,0,0,0-.46.22c-2.29.28-5,1-6,2.79-14.16,6.18-28.67,12.23-42.3,19.52-10.85,5.8-21.31,13.61-26.13,25.32-5.71,13.85-2.68,29,2.17,42.56,5,13.94,10.66,28,18.46,40.61a27.78,27.78,0,0,0-5.41,3.08c-2.38,1.57-5.36,3.64-6.85,6.13-3.18,5.3,3.45,5.77,7.67,5.18-4.88,13.56-6.79,28-7.4,42.39-.87,20.76,4.93,40.48,14.27,58.62a196.11,196.11,0,0,0-18.32,8c-1.42.71-.18,2.76,1.24,2.11q9.09-4.15,18.46-7.5A205.55,205.55,0,0,0,362.15,784c5.72,7.18,11.74,14.11,17.34,21.38a178.3,178.3,0,0,1,15,23.68,36.65,36.65,0,0,0,2.7,5.47c-8.52,10.67-15.83,22.63-22.69,34.39a419.46,419.46,0,0,0-19.82,38.45c-2.54,5.63-4.9,11.38-8,16.71a41.9,41.9,0,0,1-6.06,8.13c-1.91,1.95-4.66,3.39-6.29,5.57-3.14,4.23,2.39,9.49,4.76,12.7a125.55,125.55,0,0,0,12.69,15.15,31.19,31.19,0,0,0,12.07,12.47,1.85,1.85,0,0,0,3.29.13c7.42-14.47,3.1-30.56-7.18-42.31,9.22-10.72,17.71-22.19,26.48-33.26q6.83-8.62,13.65-17.24c3.37-4.27,7.54-8.62,10.67-13.3a9.24,9.24,0,0,0,1-1.37,1.66,1.66,0,0,0,.49-.45q2.43-3.48,4.77-7c-1.35,7.6-1.07,15.85-1.62,23.16a336.21,336.21,0,0,0-.85,38.89c.47,12,1.15,24,2.81,35.9.65,4.71.59,10.13,2.43,14.59a7.52,7.52,0,0,0,1.23,2,1.79,1.79,0,0,0,0,.21l.32.37A4.91,4.91,0,0,1,422.6,980l.55.35c5.27,2.23,12.61,1.34,18,1.69,5,.32,10.06.15,15.1.09,4.46,0,8.81,0,13.17-1.1a1.48,1.48,0,0,0,1.18-1.65,1.43,1.43,0,0,0,.1-1.29c-2.46-6.36-7.15-11.43-12.66-15.34a65.89,65.89,0,0,0-10.36-6c-3.45-1.6-7.18-2.46-10.62-4-.21-1.51-.34-3.07-.69-4.56a1.57,1.57,0,0,0,.09-.61c-.53-15.95,3.09-31.65,6.87-47,3.73-15.17,7.9-30.23,11.82-45.36,3.8-14.67,7.43-29.44,9.45-44.48,1.75-13,3-27,1.26-40.26a15.85,15.85,0,0,0,0-1.65,1.35,1.35,0,0,0,.26-.83c-.19-10.88-3.81-21.9-7.18-32.43,8-.12,16.07-.26,24-1a1.72,1.72,0,0,0,0-3.44,241.42,241.42,0,0,0-25.29.43c-.21-.66-.41-1.32-.61-2q-6-19.89-12.84-39.53-6.94-20-14.67-39.77c-5-12.87-12.18-25.89-12.16-40,0-15,4.12-29.91,8.77-44.09A11.84,11.84,0,0,0,428.12,565.29Zm8.51-44.12q0-.31,0-.62c15.12,17.79,20.11,41.8,28.93,63a1.17,1.17,0,0,0,.88.73,2.67,2.67,0,0,0,3.17,1.56c2.65-.6,4.38-4.39,5.85-6.41q4.09-5.58,8.21-11.14c4.12-5.55,8.6-10.86,9.13-18a21.73,21.73,0,0,0-1.63-10c-1.3-3.07-6-8.79-2.6-11.59a25.49,25.49,0,0,1,9.62,12.26c1.79,13.55-.81,26.37-7.1,38.64a133.45,133.45,0,0,1-10,16.19c-1.77,2.49-3.58,5-5.41,7.4-2.29,3.06-5.65,9-10.26,7.54a1.25,1.25,0,0,0-.93.05c-8.78-3.73-14.74-14.28-19.57-21.95-2.55-4.05-4.89-8.23-7.06-12.49s-3.68-9.32-6.3-13.31c3.62-3.34,5.68-8.31,6.39-13.1C439.27,540.47,437.42,530.5,436.63,521.17Zm16.26-47.72a2.06,2.06,0,0,1-3.56-1.63,1.58,1.58,0,0,0,1.31-.7c.41-.59.82-1.2,1.21-1.81a1.66,1.66,0,0,1,1.64.74A2.77,2.77,0,0,1,452.89,473.45Zm-67.4-44.81c4.15-9,13.5-14.27,23.25-14.11a1.41,1.41,0,0,0,1.28-.66,1.56,1.56,0,0,0,.81-1,1.27,1.27,0,0,0-.18-1.54h0a1.14,1.14,0,0,0-.36-.46c-3.69-2.87-8.37-6.14-9.62-10.92-1.87-7.12,4.4-12.81,10.88-13.84,12.79-2,25.28,10.17,19.6,23a1.84,1.84,0,0,0-.14.51,1.43,1.43,0,0,0-.28.44,2.18,2.18,0,0,0-.29.94,1.31,1.31,0,0,0,1.15,1.3,1.33,1.33,0,0,0,.52,0c2.09,1,4.4,1.34,6.52,2.29a27.21,27.21,0,0,1,7.1,4.6,31.43,31.43,0,0,1,9.14,14.17c3.11,10.21.87,20.38-3.47,29.68a27,27,0,0,0,0-4,22.32,22.32,0,0,0-8.58-16.64c-5.9-4.45-15.25-6.31-18.3-13.73a1.66,1.66,0,0,0-3-.39A38.92,38.92,0,0,1,410.68,439c-3.81,2.5-8.24,3.88-12,6.47-4,2.77-6.7,7.77-5.12,12.23a7.11,7.11,0,0,0-.87-.27,1,1,0,0,0-.57-.81C382.46,451.74,381.36,437.59,385.49,428.65Zm24.87,63.21a1.59,1.59,0,0,0-.38-2.14c-2.42-2.8-5-5.13-6.94-8.38s-2.88-6.67-4.07-10.13a1.21,1.21,0,0,0-.25-.42,1.4,1.4,0,0,0-1.49-1.54c-3.51.37-9.61,1-10.32-3.78-.66-4.47,4.79-6.65,7.92-3.76a1.25,1.25,0,0,0,2.09-1.16,1.19,1.19,0,0,0,.37-1.72c-6.4-8.42,8.12-13.1,13.25-16a41.14,41.14,0,0,0,12.17-10.7c2.3,3.57,5.84,5.83,9.72,7.9,6.66,3.56,12.87,6.83,15,14.68a24.39,24.39,0,0,1-.79,14.84,1.54,1.54,0,0,0-.16.21,4.86,4.86,0,0,0-.6,1.67,29.86,29.86,0,0,1-2.73,4.84c-4.73,6.82-11.56,10.89-18.41,15.23a1.59,1.59,0,0,0-.68.83,1,1,0,0,0-1,1,77.67,77.67,0,0,0-.74,18,1.67,1.67,0,0,0-.53.85c-2,7.07-8,14-15.45,7.74-4.7-4-4.3-9.81-6.67-14.81C404.28,501.82,407.54,496.58,410.36,491.86ZM323.83,595.43c-5-13.74-9.18-30-2.36-43.88,5.47-11.15,16.49-18.08,27.21-23.53,12-6.11,24.44-11.38,36.63-17.12,0,.38,0,.74-.06,1.08a87.34,87.34,0,0,1-1.21,9.39,34.64,34.64,0,0,1-5.43,13.57c-3.32,4.63-8.14,7.16-13.24,9.38a1.35,1.35,0,0,0-.8,1,47.44,47.44,0,0,0-18.2,7.27,25.06,25.06,0,0,0-10.93,17.6c-1.28,8.9.32,18.25,1.72,27a252.05,252.05,0,0,0,7,31c-1.08,1.81-2.13,3.63-3.13,5.47C333.75,621.72,328.63,608.5,323.83,595.43Zm41.57-47.11c2.27,9.56,3.83,19.51,3.58,29.34-.25,9.39-4,17.42-7.14,26a181.58,181.58,0,0,0-15.32,20.69A216.31,216.31,0,0,1,341,602.06c-1.64-8.6-3.35-17.62-3.11-26.41.24-8.51,3.39-15.89,10.62-20.68C353.76,551.5,359.76,550.51,365.4,548.31Zm-37.1,98.25c-.19-.9,4-3.55,4.62-4a44,44,0,0,1,4.66-3l.57-.29c-.66,1.35-1.31,2.71-1.92,4.08q-.68,1.52-1.29,3l-.09,0C334,646.65,328.67,648.32,328.3,646.56Zm81.13,222.06a1.8,1.8,0,0,0-.18.39c-4.41,4.38-8,10.15-11.82,14.91q-7.09,9-14.17,17.92c-8.74,11.06-17.95,21.94-26.19,33.38h0a1.85,1.85,0,0,0-.21,2.67c8.94,10.08,13.59,24.13,7.77,36.77-.4-.24-.82-.46-1.19-.72s-.93-.7-1.39-1.05c0-.12,0-.24,0-.36l-.13-.25c-2.48-2.22-4.53-4.87-6.93-7.17a1.57,1.57,0,0,0-.27-.48c-4.64-5.69-9.51-11.13-13.83-17.08-2.1-2.9-5.61-6.29-2.26-9.3a66.56,66.56,0,0,0,5.25-4.66c7.74-8.55,11.5-20,16.31-30.31q8.34-17.82,18.33-34.8c6.62-11.26,14.08-21.88,21.12-32.85a1.34,1.34,0,0,0,.78-1.75,34.77,34.77,0,0,0-2.32-5.2,1.6,1.6,0,0,0-.1-.44c-5.26-13.76-15.58-25.56-24.84-36.78-10.25-12.42-19.94-25-27.62-39.2a289.2,289.2,0,0,1,54-12.53c8.47,18.07,16.58,36.33,22.21,55.52,3.52,12,6.69,24.87,7.13,37.45.26,7.26-4.09,12.52-7.91,18.28S413.16,862.66,409.44,868.62Zm53.28-102.55a1.2,1.2,0,0,0,0,.19c.41,15.88.63,31.23-1.7,47a400.78,400.78,0,0,1-9.62,45.08c-4,14.82-8.43,29.52-12,44.45-3.48,14.53-7.15,29.7-5.91,44.74,0,0,0,.08,0,.13a34.76,34.76,0,0,0,.37,5.51v.09H434a1.37,1.37,0,0,0,.67,1.57c2.69,1.64,5.72,2.3,8.62,3.44a61.82,61.82,0,0,1,10.4,5.51,34.91,34.91,0,0,1,13.1,14.31,86.66,86.66,0,0,1-11.34.35c-4.48,0-9,.18-13.43-.08-5-.28-10.48,0-15.55-.85-3.24-1.78-3.91-3.86-4.6-7.76-1-5.62-1.62-11.44-2.25-17.11-1.21-11-1.47-22.06-2-33.09-.94-20.88,1.15-42.19,3.7-62.92l.8-1.22a42.17,42.17,0,0,1,4-5.58q.39-.6.83-1.18c0-.16,0-.33,0-.49,2.57-3.85,4.93-7.85,5.23-12.58.38-6.07-1-12.6-2.1-18.56-1.19-6.61-2.73-13.16-4.56-19.63-5.67-20.09-13.91-39.36-23.17-58.06,12.87-1.67,25.82-2.69,38.78-3.38,4.7-.25,9.44-.34,14.18-.42A277,277,0,0,1,462.71,766.07Zm-48.11-164.9a61.25,61.25,0,0,0,.54,20c1.51,6.89,4.54,13.38,7.17,19.89q16,39.7,28.8,80.6,1.57,5,3.09,10c-4.93.32-9.84.67-14.7,1-12.91.78-25.8,1.93-38.62,3.69q-3.51-7-7.17-13.87c-.64-1.21-2.39-.15-1.82,1.06q3.11,6.59,6.24,13.19a280,280,0,0,0-54,12.91c-7.75-14.9-13.92-30.87-14.6-47.81s1.08-34.93,7-51A110.9,110.9,0,0,1,347,630.1a1.49,1.49,0,0,0,.82-1.3c4.68-7.33,9.85-14.36,14.76-21.63a1.08,1.08,0,0,0,.78-.57c.48-.89.94-1.79,1.39-2.7l.78-1.19a1,1,0,0,0,.14-.72c3.44-7.39,5.88-15.45,6.1-23.53a109.73,109.73,0,0,0-2.68-25.7c6.23,7.72,18.1,10.79,25.95,3.24,1.67-1.61-.81-4-2.53-2.53a13.44,13.44,0,0,1-14.5,1.95c-4.14-1.88-6.72-5.25-9.3-8.77,7.31-3.38,12.88-8.35,16.11-16.05A48.9,48.9,0,0,0,388,518c.29-2.25-.11-5.55.7-7.64.54-1.39,2.09-2,3.64-2.65a1.79,1.79,0,0,0,1.07.1,15.71,15.71,0,0,0,3.69-1.21c1.48,4.22,1.67,8.7,4.24,12.6a14.4,14.4,0,0,0,8.78,6.31c8.46,1.89,13.13-5.33,15.08-12.45a1.67,1.67,0,0,0,0-1,1.56,1.56,0,0,0,.11-.37c0-.07,0-.14,0-.21a16.42,16.42,0,0,0,2.85,1.66c3.27,1.58,4.44,2.17,5.09,6.34,1,6.31,1.16,13,1.59,19.36.4,5.85.5,12.09-2.34,17.41-2.55,4.75-10.18,10.56-14.77,4.59a1.49,1.49,0,0,0-2.57,1.5c1.53,3.12,4.73,4.36,8,4.25A131.72,131.72,0,0,0,414.61,601.17Z" style="fill:#fff"/><path d="M352.39,640.34a1.21,1.21,0,0,0-2.08-1.22c-14.06,23.88-18.77,55.53-8.51,81.77.63,1.6,3.09,1,2.63-.73-3.51-13.28-5.47-26.45-4.22-40.21A100.69,100.69,0,0,1,352.39,640.34Z" style="fill:#fff"/><path d="M396.22,422.86a16.2,16.2,0,0,0-7.84,17.25c.27,1.35,2.61,1.07,2.45-.33A15.23,15.23,0,0,1,397.5,425,1.27,1.27,0,0,0,396.22,422.86Z" style="fill:#fff"/><path d="M422.55,394.2c-1.27-.49-2.19,1.65-.94,2.22,5.91,2.68,3.15,10,1.55,14.5-.57,1.6,2.08,2.75,2.77,1.17C428.59,406,430.29,397.21,422.55,394.2Z" style="fill:#fff"/><path d="M415.8,451.94c-1.72-.58-2.88,1.25-3,2.73a4,4,0,0,0,.25,1.69,4.84,4.84,0,0,0,.49,1.66,1.42,1.42,0,0,0,1.58.64l.1,0a1.06,1.06,0,0,0,1.05-.55,3.52,3.52,0,0,0,1.11-2.42C417.51,454.42,417.17,452.4,415.8,451.94Z" style="fill:#fff"/><path d="M431.55,453.54a1.47,1.47,0,0,0-2.11.86c-.07.16-.13.32-.19.48a1.26,1.26,0,0,0-.68.89,9.79,9.79,0,0,0,.19,4.64,1.58,1.58,0,0,0,1.89,1.08C434.59,460.74,435.27,455.12,431.55,453.54Z" style="fill:#fff"/><path d="M422.56,480.4a30.6,30.6,0,0,1-14.31-8.11c-1.16-1.12-3.26.35-2.3,1.78a20.7,20.7,0,0,0,16.25,9A1.38,1.38,0,0,0,422.56,480.4Z" style="fill:#fff"/><path d="M424.65,457.46c-.13-1.19-2.11-1.76-2.33-.31-.3,2-.46,4-.78,6s-.93,4-1.2,6c-.19,1.42,1.9,2.74,2.61,1.1A26.65,26.65,0,0,0,424.65,457.46Z" style="fill:#fff"/><path d="M318.86,977.73a78.11,78.11,0,0,0-11.77.16,1.23,1.23,0,0,0,0,2.45,78.09,78.09,0,0,0,11.77.16A1.39,1.39,0,0,0,318.86,977.73Z" style="fill:#fff"/><path d="M327.19,977.08a1.75,1.75,0,0,0,0,3.5A1.75,1.75,0,0,0,327.19,977.08Z" style="fill:#fff"/><path d="M357.62,978.64c-7.07-.35-14.16-.85-21.25-.74a1.17,1.17,0,0,0,0,2.35c7.07.46,14.17.32,21.25.32A1,1,0,0,0,357.62,978.64Z" style="fill:#fff"/><path d="M363.94,979.09a.89.89,0,0,0,0,1.78A.89.89,0,0,0,363.94,979.09Z" style="fill:#fff"/><g id="cd5f521f-8e76-495c-80a1-8da4527b30e8" data-name="boy1"><path d="M85,841.92c-6.23-.5-13.07-1.77-19.28-.88-1.3.19-1.1,2.12,0,2.44,6,1.77,13.06,1.42,19.28,1.79C87.15,845.41,87.11,842.1,85,841.92Z" style="fill:#fff"/><path d="M50.5,841.24a19.77,19.77,0,0,0-3.42-.13,9.72,9.72,0,0,0-3.36.37,1.3,1.3,0,0,0,0,2.48,9.73,9.73,0,0,0,3.36.37,19.78,19.78,0,0,0,3.42-.13C52,844,52,841.44,50.5,841.24Z" style="fill:#fff"/><path d="M243.58,327.08c-.2-.49-.39-1-.63-1.46s-.64-.95-.9-1.46c-.48-.94-1.78-.4-1.84.5a24.76,24.76,0,0,0-.29,3.16,4.42,4.42,0,0,0,1,3.24,1.81,1.81,0,0,0,2.82-.36A4.28,4.28,0,0,0,243.58,327.08Z" style="fill:#fff"/><path d="M256.12,327.68a20.2,20.2,0,0,0-3.67-6c-.75-.83-2,.05-1.79,1a19.44,19.44,0,0,0,2.69,6.1C254.24,330.18,256.8,329.36,256.12,327.68Z" style="fill:#fff"/><path d="M255.79,341c-1.39-2-2.64-4.16-3.83-6.32-1-1.89-1.79-4.1-3.27-5.67a.71.71,0,0,0-1.21.5c-.08,3.7,2.5,7.91,4.7,11.22a16.31,16.31,0,0,0-4.08,1.51c-1.13.61-.31,2.16.82,2,2-.36,4-.8,6-1.1A1.43,1.43,0,0,0,255.79,341Z" style="fill:#fff"/><path d="M381.29,348.55a1.19,1.19,0,0,0-.19-.1,1.23,1.23,0,0,0-1.42-.38,37.77,37.77,0,0,1-9.41,2.65,26.41,26.41,0,0,0-6.6,1.2,12.8,12.8,0,0,0-3.7,2.21v0a15.84,15.84,0,0,0-5.26,6.34l-.06.14.19,0c-.53,1-1,2.08-1.5,3.15s-1,2.35-1.54,3.5l.09,0c-1,2.49-1.88,5-2.81,7.44-.73,1.91-1.42,3.84-2.08,5.77-4.81,5.59-9.53,11.25-15.6,15.54-5.64,4-11.37,5.7-17.85,7.21.72-3.11.73-6.69-2-8.56a22.07,22.07,0,0,0-8.89-5.13c-6.16-2.08-12.61-3.49-18.91-5.08-13.51-3.42-27.09-6.64-40.81-9.06h0c-.09-.71-.12-1.5-.24-2.26a56.44,56.44,0,0,0,22.11-3.71,1.2,1.2,0,0,0,.24-.13c3.46-.93,6.69-2.58,8.61-5.8a11.54,11.54,0,0,0-.16-12,11,11,0,0,0-3.83-3.73l.07,0-.54-.31c-.52-.32-1.49-.92-1.41-1.64l-.18.05c0-.44.07-.9.1-1.35a.84.84,0,0,1-.1-.4V339.4c-.71-8.34-4.1-17.37-9.82-23a67.77,67.77,0,0,0,9.63-2.28.84.84,0,0,0,.45-.36c4.66-1.21,8.65-3.28,13.28-5.17,1.08-.44,1.43-2.28,0-2.57-6.94-1.4-13.15-2.88-19.57-6-5.45-2.64-10.71-5.64-16.32-7.93a48,48,0,0,0-38.59.75c-11.31,5.32-17.58,15.55-17.34,28,.26,13.39,7.58,25.55,16.05,35.4a.92.92,0,0,0,.15.14c.33.44.68.86,1,1.29-.07.78-.15,1.56-.28,2.38a111.5,111.5,0,0,1-4.15,16.49c-7.13,1.33-13.55,6.87-18.21,12.09-6.06,6.79-10.67,14.88-14.72,23-7.38,14.77-13.29,31.46-14.77,48.12-1.25,5-1.4,10.33-1.63,15.5-.3,6.73-.18,13.47-.38,20.2A216,216,0,0,1,147.31,535c-2.57,11.81-7.08,23.55-8.69,35.52-.51,3.77-.88,7.67,2.92,9.58.89.45,1.83.85,2.78,1.22a1.09,1.09,0,0,0,0,.14c-1.17,8.76-.09,17.63-.85,26.44s-3.78,17.17-6.7,25.51q-8.85,25.22-17.18,50.62T103.1,734.87Q99,747.81,94.91,760.76l-4.08,13c-1,3.13-2.77,6.78-2.29,10.14a7.67,7.67,0,0,0,3.22,4.94c-1.57,2.13-2.37,4.92-3.52,7.29s-2.45,4.42-3.54,6.7c-1.52-.56-3-1.09-4.6-1.55a1.17,1.17,0,0,0-.53,0,1.49,1.49,0,0,0-1.23.38c-6,5.09-11.24,14-12,21.89-.93,9.32,12.61,8.57,18.58,10.63a12.42,12.42,0,0,1,6.59,4.64c1.07,1.65,1.53,3.61,2.52,5.3.09.15.19.27.28.41q1.36-.19,2.7-.27c6.81,1.95,14.39,1.51,21.37,1.49q6,0,12-.21c2.92-.1,7.5.59,10.05-1a2,2,0,0,0,.39-3l0,0a27.09,27.09,0,0,0-3.06-10.12,18,18,0,0,0-7.82-8c-3.07-1.69-6.34-3-9.32-4.83-3.3-2.05-5.94-5.08-9.29-7a1.27,1.27,0,0,0-.46-.15,1.37,1.37,0,0,0-.7-.43c-2.48-.6-4.94-1.2-7.39-1.85a64.41,64.41,0,0,0,3.69-5.82,42.16,42.16,0,0,0,3.93-7.24,86.71,86.71,0,0,0,20,2.88,2,2,0,0,0,3.28-.48c13.3-28.22,32.21-53.15,49.88-78.69q16-23.21,30.92-47.12c6.63,8.87,13.82,17.35,19.83,26.63,5.76,8.89,6.75,18.66,6.69,28.68q1.67-.22,3.33-.34c.07-9.55-.81-19-5.8-27.49-3.84-6.54-8.89-12.41-13.51-18.4-3-3.86-6-7.72-9-11.52q10.07-16.18,19.74-32.61,6.86-11.63,13.49-23.4c4.13-7.34,8.58-14.68,12.19-22.31,5,12,11.36,23.68,17.09,35.39,6.43,13.16,13.95,26.27,19.1,40,4.93,13.12,3.89,27,2.21,40.62-1.75,14.25-3.62,28.48-5.43,42.72.86,1.16,1.66,2.36,2.41,3.58q2.67-21.17,5.35-42.33c1.67-13.25,3.46-27-.15-40.13s-11.08-25.34-17-37.45c-7.14-14.59-13.68-29.81-21.74-43.93,7.69-.49,16.54-1.92,23.21-5.53a1,1,0,0,0,.48-1.12,1.83,1.83,0,0,0,.09-1c-.09-.52-.17-1-.25-1.55,5.12,0,11.76-3,13.93-7.11a1.44,1.44,0,0,0,.64-1.43c-2.43-19.1-6.11-38.15-9.86-57-1.86-9.38-3.87-18.73-6-28.06-1.05-4.71-2-9.48-3.32-14.12a41.6,41.6,0,0,0-1.64-5.31c8,3.15,16.43,5.2,24.67,7.07,10.69,2.43,22.94,5.35,33.54,1.13,6.92-1.6,10.11-12.74,12.47-18.22a187.24,187.24,0,0,0,9.2-26.58,1.42,1.42,0,0,0,.36-.64c4.21-15.85,5.57-31.86,6.48-48.16.4-7.21,1.44-14.54,7.06-19.63l.37-.33a31.83,31.83,0,0,1,3.08-3.55c1.37-1.44,3.09-2.86,3.82-4.76C382.44,352.18,382,350.51,381.29,348.55ZM312.72,406c12.13,1.13,23.38-8.15,31.62-17.41q-.7,2.36-1.36,4.73c-3,10.93-4.77,21.9-8.6,32.53a1.68,1.68,0,0,0-.43.32c-5.72,6-13.8,2-20.15-.68-2.31-1-4.6-1.94-6.9-2.93C308.83,417.1,311,411.61,312.72,406Zm-34-19.66q9,2.29,18,4.79c5.22,1.46,10.06,3,13.8,7.13l0,0c1,3.48-1.73,8.51-2.76,11.46q-2,5.74-4,11.48l-.4-.17c-2.42-1-6.73-2.09-9-3.67a1.38,1.38,0,0,0-.66-.71,18.76,18.76,0,0,0-4.66-8.24c-4-5.43-10.36-8.31-16.17-11.45a175.4,175.4,0,0,0-23.42-10.51c-1.93-.71-3.86-1.43-5.8-2.16-.06-2.12-.28-4.26-.54-6.38C255.07,380.76,267,383.39,278.76,386.38Zm-16-56.23c1.86,5.23,2.27,10.52,2.33,16a1.52,1.52,0,0,0,0,.21c-6.27-.42-13.69,3.43-19.7,3.91-6.91.55-13.88-1.27-17.82-7.38-3.19-5-4.73-12.3-4.38-18.15.62-10.31,13.21-7,20.14-7.13a101.7,101.7,0,0,0,11.86-.82C258,321.18,260.94,325.13,262.72,330.15Zm-70.26-9.9c0-14.31,9.67-23.68,23-27.11s25.19.28,36.91,6.4c7,3.64,15,8.67,23.26,9.33a48.48,48.48,0,0,1-11.85,3.2,1,1,0,0,0-.89.85,163.57,163.57,0,0,1-17.11,1.63c-5.69.16-11.84-1.07-17.45,0-10.73,2.12-8.73,15-6.46,22.89,2.78,9.7,10.11,15.73,20.29,16a46.06,46.06,0,0,0,15.67-2.88c3.57-1.2,7.23-2.22,10.66.07a8.38,8.38,0,0,1,2.9,10.4c-1.54,3.48-4.9,5.19-8.74,6l0,.11c-9.17,1.14-17.78,3.86-27.2,1.92a27.57,27.57,0,0,1-12.41-5.85,27.09,27.09,0,0,1-5.4-6.85c-1.67-4.66.89-9.22,1-14.08.18-6.12-5.05-15.76-12.4-14.51-7.08,1.2-5.32,9.94-3,14.34a26.51,26.51,0,0,1,3.35,12.78C200.2,344.15,192.5,333.29,192.46,320.25Zm16.84,31.86c0-4.08-1.27-7.38-3.06-11-1-2.09-2.63-4.64-1.94-7.1,1.69-6,7.07-1.76,8.91,1,5.15,7.58-2.08,15.9,1.76,23.82a4.56,4.56,0,0,1,.31-.35c2.62,6.2,9.93,10.76,15.79,12.67a40.3,40.3,0,0,0,8.38,1.71l.06.36.15,2.1c.09,1.05.21,2.1.32,3.15.16,1.55.29,3.11.49,4.66-5.37-2-10.78-4-16.28-5.51-6.42-1.77-13.83-3-20.31-.88a.88.88,0,0,0-.36-.26C206.75,369,209.28,360.26,209.3,352.11ZM108,813.82a9,9,0,0,1,1.51.89c.24-.17.48-.31.72-.47,2.74,4.52,8.61,7.84,13.07,10,2.87,1.4,6,2.62,8.36,4.81a12.62,12.62,0,0,1,2.26,2.83l-.21.05a17.65,17.65,0,0,1,1.58,2.73c.57,1.44,1,2.94,1.47,4.43.16.73.27,1.48.36,2.22-2.7.41-6.14,0-8.53.1q-5.57.16-11.14.16c-6.91,0-14,.26-20.78-1.25a2.06,2.06,0,0,0-.5,0c-1.21-2.46-2.16-4.71-4.42-6.55a20.2,20.2,0,0,0-7.69-3.63c-3.81-1-9.77-.64-13-3-3.53-2.62.24-9.9,1.72-12.9A49.19,49.19,0,0,1,80.11,804C88.46,808.66,98.53,812.57,108,813.82Zm-4.57-12.36a69.08,69.08,0,0,0-4.12,6.59c-1.48-.43-3-.89-4.43-1.4-2.44-.85-4.84-1.81-7.26-2.75a50.34,50.34,0,0,0,3.55-6.74c1-2.17,2.32-4.57,2.68-7,3.38,1.86,7.59,3,10.31,3.9q1.67.57,3.37,1.07A72.06,72.06,0,0,0,103.48,801.46ZM268.35,586.16a66.39,66.39,0,0,1-10.56,1.06c-2.72,0-6.83.22-9.62-.91,1.55-4.72,1.72-10.6,2.09-14.21,1.21-11.72,1.77-23.52,2.6-35.27.85-12,1.76-23.91,1.7-35.91a173.33,173.33,0,0,0-1-18.32c-.52-4.64-1-9.56-3.4-13.66a.83.83,0,0,0-1.51.64c4.44,20.33,3.17,40.77,1.7,61.4q-1.07,15-2.15,30.09c-.37,5.17-.7,10.35-1.43,15.48-.56,3.88-1,12.9-5.7,14.11a1.41,1.41,0,0,0-.67.38c-12.35.34-24.5.83-36.88-.31q-10.39-1-20.66-2.9c-5.85-1.1-11.83-3-17.78-3.39a.43.43,0,0,0-.21.79c5.48,2.81,12.15,3.88,18.16,5.05q2.46.48,4.93.9c-3.61,3.2-6.83,6.51-11,9.1a66.54,66.54,0,0,1-14,6.51.83.83,0,0,0,.44,1.6c10.2-1.7,21.65-7.47,27.44-16.36a1.34,1.34,0,0,0,.16-.35c3.63.57,7.28,1.07,10.93,1.47,13.31,1.45,27.39,2.32,40.72.66a1.51,1.51,0,0,0,1.32-1.22,8.29,8.29,0,0,0,2.21-2.17c1.05,0,2.15-.16,3.19-.24.73-.05,1.45-.06,2.17-.06a47.5,47.5,0,0,0,8,.26c-8.13,13-15,26.88-22.79,40.09-7.36,12.51-15,24.84-22.85,37.06l-.25-.3a23.34,23.34,0,0,1-1.43,2.22l.24.33-1.12,1.75c-17.41,27-35.94,53.06-54.23,79.41-9.87,14.21-19.16,28.8-26.86,44.3a95.13,95.13,0,0,1-23.65-4.09,74.38,74.38,0,0,1-11.06-4.38c-5.14-2.6-3-7-1.62-11.32q7.48-23.89,15-47.75c10-31.54,20.3-63,31.27-94.22,2.75-7.83,5.5-15.66,6.39-24,1-9.06.43-18.45-.36-27.51a71.65,71.65,0,0,0,12.43,2.75c1.73.25,2.53-2.33.74-2.69-2.74-.55-5.48-1.16-8.19-1.88-2.38-.63-5.95-1.17-8-2.56-4.72-3.22-.41-12.92.83-17.18a336.67,336.67,0,0,0,8.22-34.26A213.12,213.12,0,0,0,155.65,493c.13-5.89.17-11.79.23-17.68,0-3.16.22-6.32.35-9.48a1.09,1.09,0,0,0,.08-.25c3.23-17.4,6.85-34.15,14.53-50.24,3.69-7.73,8-15.48,13.36-22.16a49.68,49.68,0,0,1,8.78-8.64c3.11-2.32,6.55-3.79,9.92-5.58a54.23,54.23,0,0,1,22.84,1.85c7.56,2.3,15,5.25,22.4,8a153.94,153.94,0,0,1,22.21,9.71c6.19,3.43,13.1,6.84,17.8,12.19a.93.93,0,0,0,.22.18,18.49,18.49,0,0,1,2.49,6.52,25.56,25.56,0,0,1-.14,6.79c-3.5,7.13-7.94,13.7-12.2,20.45l-6.81,10.8a49.3,49.3,0,0,1-3.48,5.5,7.8,7.8,0,0,1-6,2.84c-4.17-1.42-8.78-1.93-13-3.35a100.22,100.22,0,0,1-16-7.12,131.18,131.18,0,0,1-13.43-8.49c-4.29-3.07-8.27-6.77-12.77-9.54a10.39,10.39,0,0,1-.62-2,1.21,1.21,0,0,0-2.18-.29c-1.1,2.43.31,4,1.55,6.22a69.47,69.47,0,0,1,5.57,12.46,72.44,72.44,0,0,1,3.45,25.9c-.09,1.91,2.77,1.86,2.93,0a66.12,66.12,0,0,0-2-23.26,68.45,68.45,0,0,0-3.7-10.17,34.84,34.84,0,0,0-2.3-4c6.39,6.23,14.88,11.32,22.21,15.43a103.93,103.93,0,0,0,14.58,6.8c4.55,1.69,10.14,3.94,15.19,4a10,10,0,0,0,4.83-.53c6.6,18.47,7.28,37.71,9.1,57.1q2.63,28.06,7.18,55.88a1.88,1.88,0,0,0,.16,1c.17,1,.33,2.07.51,3.11C278.41,583.51,273.4,585.29,268.35,586.16Zm14.74-94.58c1.88,9.1,3.65,18.21,5.39,27.34,3.4,17.85,6,35.8,9.19,53.69a43.28,43.28,0,0,1-5.82,3.23,26.87,26.87,0,0,1-5.73,1.12q-4.7-29-7.35-58.27c-1.63-18.21-1.76-37.76-9.5-54.69l.22-.21c.24-.27.47-.56.71-.84a69.42,69.42,0,0,0,6.32,3.28.89.89,0,0,0,.13.47l.09.14a14.53,14.53,0,0,0,1.29,2.78l0,.1a29.88,29.88,0,0,0,.86,2.9c.53,2,1,3.93,1.41,5.9C281.28,482.87,282.19,487.22,283.09,491.58Zm89.58-131.28a20.78,20.78,0,0,0-5.3,6.74c-2.36,4.81-3,10.26-3.33,15.55-1,15.94-2.58,31.39-5.93,47-2.29,7.13-4.7,14.17-7.51,21.13-1.74,4.31-3.56,8.58-5.52,12.78s-3.81,9.48-9.1,10.08a1.49,1.49,0,0,0-.86.39c-10.6,1.9-20.68-.07-31.28-2.54A154,154,0,0,1,272,460.61c2.29-3.33,4.19-7.18,6.23-10.44L288,434.7a45.73,45.73,0,0,0,4.12-7.14h0a10.54,10.54,0,0,0,2.25-6.83c2.48,1.6,6,2.64,8.17,3.63,4.44,2,9,3.87,13.49,5.65,5.94,2.33,13.75,4.43,18.85-.3a1,1,0,0,0,.8-.37c3.34-3.94,4.77-9.3,5.92-14.23,1.44-6.17,2.6-12.39,4.22-18.52s3.5-12.11,5.5-18.08c2.08-6.21,5-12.15,7-18.35,2.81-4.51,6.47-6.07,11.94-6.46a27.88,27.88,0,0,0,9.33-2.36C379.68,355.38,375.49,357.89,372.67,360.29Z" style="fill:#fff"/><path d="M446.4,297.17c-2.32-9.48-7.41-25.66-18.56-27.88a1.4,1.4,0,0,0-1.72,1.06c-10,10.07-19.84,21.69-26.22,34.5a1.9,1.9,0,0,0-.4,0c-11.45,2.65-22.75,6.16-34.15,9s-22.74,5.48-34.16,8a294.71,294.71,0,0,0-30.41,8.83c-10.37,3.49-20.92,6.12-31.52,8.74v2.88c21.36-4.23,41.44-13,62.73-17.51,22.79-4.84,46.24-9.45,68.37-16.85a1.6,1.6,0,0,0,1-.85c7.31-10.83,14.45-21.33,23.23-30.9-2.23,8.8-4,18-2.55,27,1.62,10.22,8.14,18.77,15.11,26.12-11.86-2.53-21.35-11.74-32.12-16.84a1.27,1.27,0,0,0-1.72.43,1,1,0,0,0-.82,1.14c1,10.45,3.78,22.07-2.33,31.6-4.23,6.6-11,8.28-17.65,10.66l-.08.14c-1.3,2-3.24,3.55-4.88,5.33,9.08-3.18,19.68-6.22,25-14.73,5.72-9.14,5.2-20.75,2.9-31,5,3.61,10.57,6.68,15.83,9.88S431.86,332,438,333a1.76,1.76,0,0,0,1.09-.16,1.44,1.44,0,0,0,1.35-.47C449.15,323.35,449.18,308.54,446.4,297.17Zm-6.54,30.58c-5.88-7.95-12.81-14.45-14.64-24.67s.73-20.55,3.37-30.4c8.67,4.25,12.58,16.73,14.68,25.35C445.66,307.86,445.55,319.13,439.86,327.74Z" style="fill:#f2eb54"/><path d="M385.54,351l.15,0c9.21-2.78,15.45-13.25,15.28-22.48-.06-3.64-.09-10-2.87-12.8-1.72-1.76-4.11-1.62-6.19-.71-11.25,2-22.4,4.72-33.4,7.77-21.86,6-43.75,12-65.65,17.86-1.21-.46-2.8.82-1.93,2.18a57.47,57.47,0,0,0,7.67,9.75c0-.07,0-.13,0-.2,1.35,1.79,2.87,3.45,4.39,5.1,1.83,2,3.73,4.47,6.18,5.69,5.06,2.54,13.15,1.31,18.53.55a1.5,1.5,0,0,0,.39-.11c4.73-.06,9.59-1,14.24-1.55,3.42-.39,6.85-.76,10.28-1.17.35-.82.71-1.64,1.1-2.44a11.53,11.53,0,0,1,.71-1.24c-1.24.13-2.47.25-3.7.39a22.92,22.92,0,0,0-1.37-6.14,1.92,1.92,0,0,0-.14-.3,2.55,2.55,0,0,0,.19-1.85,2.62,2.62,0,0,0-.25-.58,2.67,2.67,0,0,0-5,1.38,2.7,2.7,0,0,0,1.56,2.25l.11,2.9a14,14,0,0,0,.23,2.88l-5,.6s0,0,0,0a3.84,3.84,0,0,0-.31-.93c-.29-.91-.58-1.82-.89-2.73a12.72,12.72,0,0,0-.71-1.77l-.09-.18a1.88,1.88,0,0,0,.43-1.63,2.21,2.21,0,0,0-.28-1.38,2.69,2.69,0,0,0-3.1-1.1,2.16,2.16,0,0,0-1.13.62,2.6,2.6,0,0,0,.71,4.07l.11,0a8.65,8.65,0,0,0,.42,2.33c.27,1,.57,2.08.86,3.11-2.42.23-4.86.46-7.25.85a15,15,0,0,0-.32-2.36c-.06-.33-.12-.66-.18-1a4.87,4.87,0,0,0-.53-2.56l0-.09a2.67,2.67,0,0,0,.43-1.42,1.73,1.73,0,0,0-.59-1.31,2.28,2.28,0,0,0-1.63-.95l-.3-.06a2.45,2.45,0,0,0-2.49,1.17,2.62,2.62,0,0,0,1.42,3.74c.14,1,.31,2,.48,2.93a16.65,16.65,0,0,0,.48,2.3c-5,.31-12,1.53-16.22-1.06s-7.18-7.32-10.94-10.67a48.11,48.11,0,0,1-4.85-6c16.71-4.43,33.38-9,50.14-13.26q12.6-3.17,25.23-6.19c4.34-1,8.7-2,13.07-2.94q3.28-.68,6.57-1.3l2.3-.42c1.8.08,3.58-.34,4.57,1.94,1.19,2.77,1.05,7.3.93,10.24-.34,8.32-6.15,13.54-12.84,17.48a1.5,1.5,0,0,0-.31.25,5.13,5.13,0,0,0-1.1.16,12.25,12.25,0,0,1,.71,3.3l.17-.06A4.52,4.52,0,0,0,385.54,351Z" style="fill:#f2eb54"/><path d="M328.77,366.88c-4.23.33-8.5.63-12.74.72a63.12,63.12,0,0,1-9.57-.9c-6.93-5.72-11.55-13.46-17.89-19.78-1.93-1.92-3.84-4.49-6.75-4.23a71.49,71.49,0,0,0-12.47,2.58.77.77,0,0,1,.16.26l.21.15c.31.21.63.39,1,.57l1.46.8c2.89-.79,5.88-1.73,8.59-1.68,4.44.08,7.59,5.31,10.1,8.35,4.32,5.22,8,11.88,13.92,15.43a1.37,1.37,0,0,0,.55.19c6.31,3.44,16.1,1.43,22.69.84,7.1-.64,14.6-1.06,21.71-2.51.57-1.11,1.06-2.25,1.54-3.4C343.72,364.86,336.25,366.29,328.77,366.88Z" style="fill:#f2eb54"/><path d="M359.68,345a2.72,2.72,0,0,0-1-.83,2.92,2.92,0,0,0-3.91,1.1,2.7,2.7,0,0,0-.27,1.59,3,3,0,0,0,1.31,2.48,25.51,25.51,0,0,0,.2,5.77,37.47,37.47,0,0,1,3.87-3.22c-.08-.9-.22-1.79-.3-2.61a2.68,2.68,0,0,0,.74-3.51A3,3,0,0,0,359.68,345Z" style="fill:#f2eb54"/><path d="M164.9,512.69c-1.38,6.29-1.33,12.77-2.43,19.1a142.18,142.18,0,0,1-4.87,18.82c-.48,1.5,1.94,2.58,2.59,1.09a79.33,79.33,0,0,0,5.51-19c1.06-6.52,1-13.11,1.81-19.64C167.69,511.56,165.22,511.24,164.9,512.69Z" style="fill:#fff"/><path d="M241,689a49.07,49.07,0,0,1,8.2,24.55c.28,4.59.38,9.19.4,13.8q1.5,0,3,.16a126.41,126.41,0,0,0-.68-18.73C249.82,693,239.26,679.46,227.71,669a1.12,1.12,0,0,0-1.59,1.59C231.05,676.8,236.61,682.4,241,689Z" style="fill:#fff"/><path d="M114.14,785.51c-3.09-1.3-6.21-2.53-9.35-3.73-1.35-.52-4.59-1.32-5.09-3-.31-1.06,1.67-4.54,2.08-5.65,2.47-6.72,5-13.43,7.1-20.28.31-1-1.29-1.72-1.72-.73-1.87,4.3-3.58,8.66-5.21,13l-2.7,7.26c-.75,2-2.1,4.39-2.36,6.53-.23,1.9.77,2.76,2.35,3.57,4.45,2.27,9.53,3.81,14.22,5.5C115,788.55,115.62,786.13,114.14,785.51Z" style="fill:#fff"/><path d="M484.62,254.25c-10.74,6.82-22.47,13.14-32.34,21.17-1.07.87.29,2.35,1.4,1.81,11.32-5.55,21.89-13.53,32.48-20.36C487.79,255.82,486.28,253.2,484.62,254.25Z" style="fill:#f2eb54"/><path d="M504.53,287.81c-14.76,1.56-29.63,2.87-44.31,5.08-1.46.22-1.12,2.69.35,2.58,14.68-1,29.34-3,44-4.64C506.43,290.61,506.47,287.61,504.53,287.81Z" style="fill:#f2eb54"/><path d="M505.06,331.32c-15.39-4.84-30.86-10.28-46.54-14.07a1.21,1.21,0,0,0-.64,2.32c15.12,5.65,31,9.82,46.44,14.44C506,334.53,506.77,331.86,505.06,331.32Z" style="fill:#f2eb54"/></g><path d="M189.32,305.44c-1.06-.44-2.12-.88-3.17-1.33a218.68,218.68,0,0,1-28.3-14.77q-6.5-4-12.69-8.52c-4.37-3.17-8.6-7.21-13.48-9.54-.78-.37-1.85.44-1.29,1.29,2.77,4.19,7.25,7.39,11.18,10.45,4.2,3.27,8.57,6.33,13,9.24a202.49,202.49,0,0,0,29.83,16.09q1.83.8,3.68,1.56A11.32,11.32,0,0,1,189.32,305.44Z" style="fill:#fff"/><path d="M451.89,136.92c-2.63,13.56-4,27.23-7.31,40.69a314.59,314.59,0,0,1-13.1,40.71,296.75,296.75,0,0,1-18.63,38.57c-7.12,12.39-15.51,23.86-23.5,35.68-1.22,1.81,1.57,4,3,2.34,14.78-16.48,26.1-36.8,35.46-56.75A295,295,0,0,0,449.4,174c2.42-11.43,5-23.61,5.15-35.39.05-.17.12-.31.17-.47Z" style="fill:#fff"/><path d="M471.76,120.61c1.32-1.68,2.83-4.09,1.78-6.28a3.47,3.47,0,0,0-2.14-1.8c-2-.78-3.23.33-1.63-2.8,1.22-2.39,3.68-5.25,2.94-8.16A3.47,3.47,0,0,0,468.12,99c-2.37.9-3.52,3.78-4.76,5.74-.22.36-1.18,2.18-1.59,2.11-2-.35,0-3.65.39-4.35a41.56,41.56,0,0,0,2.12-4.64c.82-2.33,1.77-5.81-.44-7.73s-4.67-.23-6.26,1.59c-1.86,2.11-2.6,4.48-3.55,7.08-.28.77-1.09,3.7-2.65,3.21-.56-.17-.57-2.59-.62-3.1-.11-1.15-.13-2.31-.31-3.46-.32-2-.93-4.77-3.09-5.59-2.34-.89-4,.93-4.63,3a17.34,17.34,0,0,0-.75,3.55l-.07.34a1.21,1.21,0,0,0,0,.42c-.31,3.89.3,7.94.19,11.75,0,1.42.13,4.55-1,5.64-1.63,1.56-3.18-.88-4.56-1.85-1.64-1.15-4.1-1.81-5.13.48s1.62,5.24,3,7,3,3.15,4.39,4.79a6,6,0,0,1,1.64,3.81c-.12.95-.19,1.9-.34,2.85q1.29.65,2.59,1.27a11.69,11.69,0,0,0,.14-3.25,6.33,6.33,0,0,0-1.16-4.84c-1.88-2.71-4.55-4.84-6.54-7.49-1.52-2-1.81-4.15,1-1.84a11.37,11.37,0,0,0,2.53,2,3.37,3.37,0,0,0,4-1c2.87-3.31,1.83-9.83,1.65-13.79a38.72,38.72,0,0,1,.11-5.91c0-.17,0-.46.06-.8a16.54,16.54,0,0,1,.76-1.83,1.67,1.67,0,0,1,1.35-.56,1.48,1.48,0,0,1,1.49,1.43,1.14,1.14,0,0,0,.19.48c.12,1,.08,2,.14,2.81.14,1.75,0,4.41,1.51,5.7s3.31.66,4.49-.66c1.89-2.11,2.09-5.34,3.39-7.76.7-1.3,3.8-6.07,5-2,.58,1.86-1.46,5.3-2.23,6.86-1.12,2.26-3.06,5.14-2,7.8a2.41,2.41,0,0,0,3.53,1.5c1.87-.85,2.95-3.08,3.94-4.74.42-.7,3.7-6.18,4.18-1.49.15,1.46-1.9,3.83-2.61,5.15-.94,1.76-2.47,4.78-.32,6.3,1.1.77,3.57-.29,3.92,1.58.27,1.47-2.63,4-3.55,4.76-4.19,3.6-8.81,6.14-12.06,10-1.58,1.26-3.08,2.73-3.39,4.64a1.14,1.14,0,0,0-.24.51l-.12.65,2.83,1.23C457.67,129.39,466.37,127.45,471.76,120.61Z" style="fill:#fff"/><path d="M265.16,197.75a6.19,6.19,0,0,0-1-2.66c-.77-1.08-2.26-1.74-3.38-.89a1.15,1.15,0,0,0-1.23,1.16,7.27,7.27,0,0,0,1.86,4.31c.85,1,2.6,2,3.51.46A3.53,3.53,0,0,0,265.16,197.75Z" style="fill:#fff"/><path d="M257.53,188.54c-3,1-5.1,3.27-7.14,5.57-.86,1,.51,2.38,1.44,1.44,1.92-1.93,3.63-4.07,6.22-5.12C259.18,190,258.76,188.15,257.53,188.54Z" style="fill:#fff"/><path d="M283.78,185.74a1.15,1.15,0,0,0-1.39.79v0a2.4,2.4,0,0,0-.69,2.47,5.69,5.69,0,0,0,2.23,3,1.17,1.17,0,0,0,1.39-.18C287.43,190.15,286.47,186.16,283.78,185.74Z" style="fill:#fff"/><path d="M277.46,198.78l-.09.29-.65-.83c-.56-.73-1.06-2-2-2.24a1.1,1.1,0,0,0-1.23,1.6l0,.06a1,1,0,0,0,.44.61l0,.06a6.44,6.44,0,0,0,.87,1.37c.61.89,1.29,1.74,1.93,2.62A1.27,1.27,0,0,0,279,202c.3-.86.55-1.71.77-2.59A1.22,1.22,0,0,0,277.46,198.78Z" style="fill:#fff"/><path d="M285.58,207.38c-2.65,2.68-6.53,5.18-10.42,5.2-1.25,0-1.18,1.75,0,1.89,4.42.52,9.15-2.34,12-5.49C288.17,207.92,286.61,206.34,285.58,207.38Z" style="fill:#fff"/><path d="M440.13,131.52c0,.3-.11.6-.18.9-.22.88-.45,1.76-.68,2.64-3.92,12.31-6.21,24.74-12.23,36.4-5.49,10.64-13.51,20.31-23.81,26.57-20.49,12.47-45.5,10.78-67.85,17.6-10.35,3.16-20.22,7.55-28.17,14.85a27.66,27.66,0,0,0-2-2.25,23.58,23.58,0,0,1-3.66-5.35c-1.06-2.1-1.33-5.29-2.7-7.38a34.68,34.68,0,0,0,7.75-15c4.27-2.76,6.23-7.47,6.23-12.39a1.34,1.34,0,0,0,.63-.14c3.51-1.83,4.78-6.39,3.94-10.08-.64-2.82-2.91-6.14-5.9-6.86a24.8,24.8,0,0,1,4.31-5.78c4-4.21,8.7-7.71,12.48-12.14,5.66-6.65,10-17,4.25-25-4.7-6.54-13.59-8-19.29-2-3.14,3.31-5.21,8.81-10.36,9.32-6,.59-11.18-4.83-15.87-7.73-7.67-4.74-16.43-5.19-21.1,3.55-2,3.81-3.13,8.68-7.1,11-4.81,2.85-11.17,1.58-16.49,2-9.55.82-18.74,5.87-23.11,14.66-5.71,11.49-.36,22.13,5.68,32.15,1.45,2.41,2.89,4.85,4.33,7.28a5.37,5.37,0,0,0-2.64,1.44c-1.62,1.8-1.5,4.62-.48,6.68,1.79,3.62,7,6,10.57,3.78,1.56,2.26,3.28,4.35,5.6,5.48a11.79,11.79,0,0,0,7.53,2.38,36.14,36.14,0,0,0,18.72,9,1.75,1.75,0,0,0,.43.32,16.92,16.92,0,0,1,7.88,8.67c1.51,3.7.79,6.75.86,10.44-7.69,8.48-15.64,16-26,21.22a93.27,93.27,0,0,1-33.76,9.4c-13.56,1.22-27.24-.26-40.48-3.23-6.73-1.51-13.38-3.42-19.93-5.57-5-1.64-9.91-3.58-14.91-5.22q-.87-.62-1.69-1.31l0,0c-.68-.68-1.28-1.42-1.94-2.12a6,6,0,0,1-.88-4.06c.2-2.16.63-4.28.79-6.45s.75-6.07-1.56-7.43-3.79.7-4.46,2.59c-.56,1.58-.4,4.47-2.63,4.15-1.56-.22-3.23-2.87-4.1-4-2.31-3-4.17-6.68-6.68-9.67a1.21,1.21,0,0,0-.25-.34l-.25-.24a17.34,17.34,0,0,0-2.67-2.45c-1.72-1.25-4.1-1.8-5.49.29-1.28,1.93-.17,4.51.74,6.35.52,1,1.17,2,1.76,3,.26.44,1.65,2.41,1.3,2.88-1,1.3-3.34-.61-4-1.07-2.28-1.56-4.26-3.05-7-3.69-2.36-.55-5.33-.48-6,2.35s2.11,5.13,4.13,6.54a41.55,41.55,0,0,0,4.42,2.54c.69.37,4.31,1.84,2.85,3.31-.3.3-2.13-.63-2.52-.79-2.15-.87-4.76-2.55-7.21-1.9a3.47,3.47,0,0,0-2.22,4.8c1.09,2.8,4.76,3.69,7.14,4.93,3.12,1.62,1.47,1.44.3,3.23a3.47,3.47,0,0,0-.69,2.71c.42,2.39,3.05,3.47,5.1,4.07,8.36,2.43,16.57-1.05,24.06,4.36l1.58-2.65-.48-.45a1.14,1.14,0,0,0-.49-.27c-1.36-1.38-3.43-1.7-5.45-1.81-4.89-1.25-10.11-.63-15.62-1.12-1.21-.11-5-.46-5.66-1.8-.81-1.72,1.83-2.3,2.27-3.56.87-2.49-2.14-4.06-3.92-4.94-1.34-.67-4.39-1.4-5.12-2.68-2.33-4.1,3.52-1.55,4.26-1.22,1.78.78,3.95,2,6,1.57a2.41,2.41,0,0,0,2-3.28c-.68-2.78-3.93-4-6.15-5.19-1.54-.82-5.19-2.43-5.81-4.29-1.33-4,4-1.91,5.29-1.27,2.46,1.21,4.51,3.72,7.27,4.34,1.73.39,3.59-.17,4-2.07s-1.17-4-2.08-5.51c-.41-.67-1.06-1.52-1.52-2.37a1.14,1.14,0,0,0-.13-.5,1.48,1.48,0,0,1,.38-2,1.67,1.67,0,0,1,1.42-.33,16.57,16.57,0,0,1,1.69,1l.51.61a38.72,38.72,0,0,1,3.53,4.75c2.15,3.33,5.1,9.24,9.36,10.26a3.37,3.37,0,0,0,3.83-1.48,11.37,11.37,0,0,0,.9-3.1c.92-3.49,1.92-1.59,1.86.94-.08,3.31-1,6.59-1,9.89a6.33,6.33,0,0,0,1.87,4.61,11.69,11.69,0,0,0,2,2.56l0-.07a10.72,10.72,0,0,0,3.22,2.51c1.65.89,3.37,1.77,5.06,2.58v.05l.44.17h.07a201.54,201.54,0,0,0,29.42,8.47c13.86,3.06,28.34,4.6,42.5,3a96.29,96.29,0,0,0,34.4-10.44c9.58-5.11,19.14-12.31,24.73-21.8a1.63,1.63,0,0,0,1.35-.79c4.83,3.75,12.55,3.7,17.74.86,4.72-2.58,9.5-8.76,9.28-14.55,16.95-16.55,42.15-17.77,64.25-21.92,11.61-2.18,23.59-5.15,33.83-11.25s17.31-14.92,22.73-25.21a118.69,118.69,0,0,0,7.75-19.16,163.81,163.81,0,0,0,5.8-21.95,18.4,18.4,0,0,0,.54-2.2Q441.42,132.17,440.13,131.52Zm-126.43,47c.52,2.28-.25,4.22-1.23,6.14a20.16,20.16,0,0,0-.9-3.31c-1-2.69-1.72-5-1.08-7.66C311.87,175,313.22,176.34,313.71,178.47Zm-84.84,27c-1-1.55-1.07-3.76.82-4.56.21-.09.53-.18.82-.31q2.18,3.64,4.49,7.2C232.67,208.06,230.27,207.69,228.87,205.51Zm17.53,9.23-.05,0c-4.26-1.82-6-6.13-8.21-9.89-2.84-4.87-5.85-9.65-8.78-14.46-5.43-8.94-11.76-18.68-6.67-29.28,4.61-9.6,14.52-12.88,24.46-13,7.33-.08,14.47-.68,18.61-7.53,1.73-2.86,2.6-6.21,4.52-9,3.65-5.23,9.48-3.52,14.12-.69,6.4,3.89,13.1,11.11,21.41,8.57,6.92-2.12,9.56-14.5,17.48-12.7,12.25,2.78,6.19,18,.76,24-6.14,6.79-15.66,12.29-18.1,21.69-1.36,5.26,1.53,8.82,2.35,13.77a11.62,11.62,0,0,1-1,6.86,35.28,35.28,0,0,0-6.9-20.15,20.76,20.76,0,0,0,4.05-13.07,1.75,1.75,0,0,0-.35-1,6.58,6.58,0,0,0-1.38-3.47c-2.73-3.52-8.09-4.12-12.13-3a14.84,14.84,0,0,0-9.52,8.45c-1.06,2.34-1.77,5.4-4.51,6.32-3.87,1.31-5.59-2-6.67-5a2.19,2.19,0,0,0-4.19,0c-2.45,8.49,8.86,13.54,15.06,8.73,3.75-2.9,3.77-8,6.95-11.27a9.76,9.76,0,0,1,7.4-2.88c3.4.18,4.36,1.93,5.47,4.25-1.67,4.93-3.53,9.5-7.41,13.27a24.73,24.73,0,0,1-16,6.83c-6.58.41-13.23-.67-19.72-1.62-5.72-.84-11.72-2.69-17.55-3.06a.36.36,0,0,0-.18,0,.38.38,0,0,0-.15,0c-.65,0-1.3-.06-2-.05a1.17,1.17,0,0,0-.59,2.17,30.85,30.85,0,0,0,4.51,1.91,33.5,33.5,0,0,0-1.88,21.08,32.47,32.47,0,0,0,6.76,13.21Zm-.45-9.88c-3-7.51-2.25-15.72,1-22.92,4.42,1,9,1.53,13.17,2.21,7.43,1.21,15.13,2.38,22.59.79a30.22,30.22,0,0,0,15-8.62,30.49,30.49,0,0,1,5.58,17,26.74,26.74,0,0,1-.25,3.79,3,3,0,0,1-.15,1.6s0,0,0,0a4.82,4.82,0,0,1-.19,1.1,2.27,2.27,0,0,1-.35.8c0,.07-.1.12-.15.18l0,.12a31.26,31.26,0,0,1-22.45,21.7C266.36,225.78,251.07,217.66,245.94,204.86Zm50.37,40.34c-4.88,2.73-9.55,1.58-14.36-.19a20.55,20.55,0,0,0-6.86-17.41,34,34,0,0,0,20.52-8.86,20.71,20.71,0,0,0,1.54,6c1.11,2.8,3.34,7.06,6.3,8.9C302.13,238.31,301.27,242.42,296.32,245.2Z" style="fill:#fff"/><g id="f1df8dfd-a6a5-4641-8cbd-7146029086e6" data-name="girl2"><path d="M593.72,420.08a3,3,0,0,0-.75-.26,1.6,1.6,0,0,0-2.81,1.34c0,.24.09.48.13.72a4.52,4.52,0,0,0,.3,3.38,1.23,1.23,0,0,0,.7.51c.06.13.12.27.19.4a1.63,1.63,0,0,0,2.53.33C595.62,424.75,596.3,421.38,593.72,420.08Z" style="fill:#fff"/><path d="M754,694.4c-11.35-18.73-23.41-37.07-35.08-55.6l-17.3-27.45c-5.39-8.55-10.51-17.52-16.61-25.6l.9-1.56a66.16,66.16,0,0,0,7.37-19.29,148.55,148.55,0,0,0,2.66-21.43c.44-7-.06-14,.39-21a134.68,134.68,0,0,0,19.19-11.87A1.36,1.36,0,0,0,716,510a1.62,1.62,0,0,0,.13-2.86c-7.77-4.14-16.31-6.58-23.23-12.22-1.05-.86-2.05-1.76-3-2.7a2.14,2.14,0,0,0,.83-.53c7.28-7.41,10.7-18.73,9.46-29-1.28-10.64-9.45-21.63-19-26.43-5.15-2.59-11.46-3.37-9.83-10.88,1.35-6.23,4.67-11.37,4.89-17.93.39-11.35-6-20.32-16.58-23.81-5.58-1.83-10.68-3.29-15.36-7s-8.95-8.06-13.8-11.64a38.9,38.9,0,0,0-31.39-6.82c-10.27,2.24-18.11,9.11-20.35,19.5-2,9.38.06,17.27,5.68,24.19-.37,5.1-1.92,10-2.84,15.05-1,5.44-1.94,10.87-3.18,16.26a1.8,1.8,0,0,0,2,2.16,10.3,10.3,0,0,0,2.67.43c.48,0,1,.09,1.5.11a37.79,37.79,0,0,1,.35,6.52,1.41,1.41,0,0,0,0,.5c0,4.09.23,8.06,3.52,11.28a15.46,15.46,0,0,0,4.4,2.91c1.38.63,3.41.91,4.51,2,2.58,2.5-1.25,8.66-3,11.08a1.57,1.57,0,0,0-.3.79,48,48,0,0,1-12.34,8c-4.65,2.2-9.25,4.25-13.23,7.56a104,104,0,0,0-14.14,14.17c-3.87,4.75-8.2,10.4-9.5,16.52a1.64,1.64,0,0,0,0,.48.93.93,0,0,0,.39,1.76.84.84,0,0,0,.64-.26,1.45,1.45,0,0,0,2.14-.65c5.57-12.09,14.27-23.69,25.53-31.2a46.72,46.72,0,0,1,4.84-2.77c8.56,8.6,21.56,11.07,33.27,9.36a56.92,56.92,0,0,0,18-5.91c5.29-2.76,11.81-6.69,15.18-11.75a1.34,1.34,0,0,0,.18-.41c8.35.86,17.43.75,24.8,4.4,8.75,4.33,13.8,12.91,21.34,18.73a66.37,66.37,0,0,0,20.8,10.32c-8.41,3.89-15.68,10.17-24.44,13.53-10.16,3.89-20.64,7.32-31.57,7.77a1.7,1.7,0,0,0,0,3.4,44.33,44.33,0,0,0,6.3-.31c.52,6.57-.39,13.08-1.1,19.62-.61,5.57-1.3,11.22-4.22,16.05-2.93,1-7.5-.3-10.27-.75a112.34,112.34,0,0,1-13.37-3.3,98.1,98.1,0,0,1-13.11-4.65c-2.91-1.31-7.35-2.19-9.26-4.94,3.61-8.46,1.54-22.36-7.95-25.55-13.61-4.57-7.68,17.44-5.8,23h0a37.44,37.44,0,0,0,1.63,9.62c3.34,10.44,12.17,16.86,21.8,21.13,11,4.9,22.11,9.67,33.78,12.77,5.34,1.42,10.53,2.43,16,.89a30.87,30.87,0,0,0,4.39-1.65c3.68-1.08,6.34-3.92,8.5-7.08,4.6,8.69,10.34,17,15.56,25.26l17.26,27.47c11.5,18.3,22.67,36.86,34.49,55C751.86,698.75,755.42,696.72,754,694.4ZM629.31,484a54.2,54.2,0,0,1-16.93,6.13c-11.49,2.06-21.86-.66-31.26-7,2.33-1.1,4.68-2.17,6.93-3.4,3-1.63,6.62-3.7,8.49-6.75a1.59,1.59,0,0,0,.82-.53c3.69-4.39,8.21-13.6,1.43-17.18-4.86-2.57-9.78-3.25-10.38-9.79,0-.36-.06-.71-.08-1.06a17,17,0,0,0,11.35-3.19,1.33,1.33,0,0,0-1.34-2.29,24.84,24.84,0,0,1-10.19,2.51c0-.65-.09-1.3-.15-1.94a21,21,0,0,0-.3-5.17,1.66,1.66,0,0,0-1.15-1.9,9.6,9.6,0,0,0-3.46-.08l-1,.08c1.14-5.41,2-10.86,3-16.31.67-3.83,1.67-7.61,1.89-11.46l.35.36a98.38,98.38,0,0,0,16,12.45c2.82,1.82,5.72,3.55,8.68,5.14,1.64.88,4.92,1.7,5.82,3.43,1.54,3-.56,8.71-1.18,11.77a65.29,65.29,0,0,0-1.49,10.71,19.93,19.93,0,0,0,1.76,9.36c1.13,2.33,2.94,4.2,4.37,6.33a1.24,1.24,0,0,0,0,.14,13.9,13.9,0,0,0,1.07,1.78l.07.12a1.32,1.32,0,0,0,.35.46c4.08,5.3,11.57,7.46,17.87,8.52l.26,0C637,478.25,633.64,481.58,629.31,484Zm57.81,5.55c-4.34-4.48-8.42-9.18-14.09-12.23-7.67-4.14-16.68-4-25.14-5a75.82,75.82,0,0,1-12.83-2.17,28.14,28.14,0,0,1-10.12-5.61,19.28,19.28,0,0,0-2.87-5.07,16.61,16.61,0,0,1-3.35-9.59c-.19-6.25,2-12.27,2.67-18.42.35-3.12.76-6.89-2-9.06-3.11-2.47-7.53-3.87-11-6A110.34,110.34,0,0,1,593.88,406c-4-3.4-8.46-7.41-10.54-12.3-4.18-9.86-1-23.09,8.28-28.73s22.57-5.12,32,.16,15.68,14.93,25.54,19.28c4.1,1.81,8.59,2.57,12.64,4.46,5.6,2.6,8.92,7.93,9.9,13.93,1.1,6.75-1.32,12.18-3.53,18.32-1.44,4-2.31,8.7.14,12.53s6.89,4.53,10.57,6.4c5.79,2.94,10.47,8.6,13.6,14.17,6,10.69,3.58,25.67-4.88,34.45A2.16,2.16,0,0,0,687.11,489.56Zm-14.79,103.1-.15.11c-.6.25-1.2.49-1.81.71-5.69,2-10.93.69-16.57-.73-10.42-2.63-20.17-7-30.12-11.08-10.38-4.21-20-10.39-22.7-22a36.36,36.36,0,0,1-.82-5.83l-.41-.08a1.27,1.27,0,0,0,.19-.82,83.7,83.7,0,0,0-1.65-9.54,34,34,0,0,1-1-5.95c-.05-4.13,3.43-4.73,6.22-2.65,6.22,4.64,5.94,13.78,3.38,20.27l-.12,0c0,.08,0,.16,0,.24-.11.27-.22.54-.33.8a1.89,1.89,0,0,0,2.05,2.69,13,13,0,0,0,4.8,3.11c5.77,2.52,11.25,5,17.3,6.83A131.12,131.12,0,0,0,649.33,573c3.82.54,7.87,1.55,11-1.33a1.64,1.64,0,0,0,.49-1.58c2.52-4.25,3.1-9.87,3.6-14.55a93.54,93.54,0,0,0,.14-22.19c7.91-1.3,15.71-4.28,23-7,1.67-.62,3.35-1.32,5-2.07-.9,4.11-.2,8.85-.41,12.84a205.39,205.39,0,0,1-2,21.91C688.17,571.22,683.71,586.19,672.33,592.66Z" style="fill:#fff"/><path d="M572.35,569.71C557.87,563.91,545,555.17,532.5,546c-11.48-8.43-24.85-16.94-29-31.06a37.32,37.32,0,0,1-.51-7.71,26.36,26.36,0,0,1,.73-4.94c.45-1.75,2.31-9,6.49-3.88,1.56,1.9,1.26,6.46,1.38,8.82.16,3.26,0,6.52.06,9.79a1.63,1.63,0,0,0,.2.76,4.62,4.62,0,0,0-.17.6,12.45,12.45,0,0,0-.29,1.65,1.44,1.44,0,0,0,2.82.38,10.78,10.78,0,0,0,.25-1.46l0-.12c3.21,3.25,7.28,6,11,8.59,4.73,3.34,9.65,6.43,14.67,9.32a223,223,0,0,0,29.72,14.09c2,.8,3-2.52.9-3.28a189.93,189.93,0,0,1-29.65-14q-6.54-3.78-12.79-8.05c-4.5-3.07-8.78-6.8-13.5-9.5a52.49,52.49,0,0,0-1-16.48c-.75-3-2.9-6.08-6.34-5.9-8.78.46-8.22,16.34-6.41,22.82,2.6,13.56,16.08,22.64,26.5,30.5,13.65,10.3,27.77,20.16,43.78,26.44C573.63,574.29,574.61,570.61,572.35,569.71Z" style="fill:#fff"/><path d="M815.23,883.22a1.73,1.73,0,0,0-.08-.67c-2.39-7.51-12-12.82-19.46-12.92a1.58,1.58,0,0,0-.41.05c-7.85-3.92-16.26-6.86-24.31-10.36q-12.7-5.52-25.17-11.53-12.1-5.83-24-12.17c-7.58-4-15-8.71-22.74-12.41a2.11,2.11,0,0,0,.16-.67c1-16.57,1.58-33.17,2.35-49.76l1.12-24c.35-7.52,1.22-15.33,1-22.91a48.59,48.59,0,0,0,29.42-1.11c10.34-3.73,21.78-11.89,26.23-22.32a2.12,2.12,0,0,0-3.67-2.14c-3.25,4.29-6,8.52-10.14,12.09a45.76,45.76,0,0,1-14.22,8.34c-11.41,4.14-22.77,2.68-34-1a2.09,2.09,0,0,0-3.87.31c-5.12,16.77-18.38,30.27-35.82,33.8a48.11,48.11,0,0,1-27.46-2.65c-8.47-3.46-15.11-9.64-21.75-15.74l.24-.34c1.26-1.93-1.65-4.2-3.21-2.47l-.59.64a1.37,1.37,0,0,0-.63.68c-8.69,9.31-18.27,16.33-31.19,18.84-13.73,2.66-27-.88-38.79-7.72a2.4,2.4,0,0,0,.24-.58c7.23-27.13,13.76-54.31,22.28-81.1,3.85-12.08,7.84-24.16,13-35.75,5.06-11.31,11.47-21.56,18.18-31.93a1.18,1.18,0,0,0-1.84-1.42c-16.58,17.71-25.26,43.26-32.63,65.9-8.86,27.21-17.51,55.07-23.22,83.14a2.25,2.25,0,0,0,.08,1.23,1.52,1.52,0,0,0,.09,2.3c12.48,9.83,29.65,12.87,45.37,9.6.57,6.11,2.09,12.22,3.19,18.23q2,10.77,3.81,21.57,3.75,22,7,44.11c4.25,29.2,6.76,58.59,10.59,87.83-8.15,1.7-16.14,5.3-23.45,9.1-4,2.06-15,6.84-11,13.24,1.41,2.2,4.13,2.45,6.49,2.53,5.23.18,10.53-.07,15.77-.21,10.78-.29,21.56-.82,32.31-1.7a2.19,2.19,0,0,0,1.85-2.9,1.82,1.82,0,0,0,.11-.39c1.22-7.64.88-15.67,1.18-23.39q.48-12.32,1.1-24.63,1.21-23.77,3-47.51c2.33-31.63,5.94-63.13,8.65-94.71a52.26,52.26,0,0,0,6.47,1.11c4.73,18,11.35,35.8,17.18,53.51,3.95,12,7.51,30,20.42,35.75a1.89,1.89,0,0,0,.87.17c7.29,4.88,15.72,8.52,23.65,12.06q13.11,5.86,26.64,10.7t27.66,8.61c9,2.41,18.27,4.93,27.58,5.94-2.72,4.91-3.64,11.63-4.6,16.92a118.39,118.39,0,0,0-2.07,17.4,1.67,1.67,0,0,0-.1.53,6.68,6.68,0,0,0,.07,1.08c0,.11,0,.22,0,.33a1.71,1.71,0,0,0,.4,1.17,6,6,0,0,0,1.13,1.79,7.59,7.59,0,0,0,7.8,2.33,1.67,1.67,0,0,0,.85-.65c5.32-2.07,8-8.49,10.53-13.08,4.11-7.35,8.34-14.64,12.35-22C814.48,888.9,816.05,885.65,815.23,883.22ZM623.7,850.63q-1.77,23.74-3,47.51-.6,11.89-1.06,23.78c-.32,8.28-1.31,17-.48,25.25-14.72,1.28-29.45,2.11-44.23,2.28l-2.49,0q-2.9.45-2.72-3.71c.52-.88,2.83-2,3.7-2.47,3.06-1.74,6.21-3.37,9.39-4.88,6.2-2.94,12.69-5,19.08-7.4a1.69,1.69,0,0,0,2.33-1.12,1.36,1.36,0,0,0,0-1.71c-1.89-28.83-6.44-57.72-10.64-86.28q-3.19-21.67-6.88-43.25-1.85-10.79-3.83-21.56c-1.29-7-2.2-14.44-4.3-21.29,11-2.85,21.1-8.86,28.07-17.88,6.22,7.22,13.17,13.54,22.16,17.24,1.54.63,3.11,1.18,4.7,1.66C628.63,787.86,626,819.3,623.7,850.63Zm182.95,44.58-5.75,10.3c-1.92,3.43-3.81,6.88-5.76,10.29a21.51,21.51,0,0,1-3.8,5.48c-2.33,2.12-6,2.71-7.52-.19A185.29,185.29,0,0,1,786,901.78c1-5.56,3.51-11.53,3.63-17.17a1.84,1.84,0,0,0-1.1-2.47c-9.28-2.62-18.84-4.21-28.17-6.7s-18.56-5.35-27.68-8.53-18.27-6.8-27.18-10.74c-7.72-3.41-15.24-7.57-23.08-10.74a2.09,2.09,0,0,0-.34-.3c-12.48-8.76-15.54-25-20.05-38.7-5.22-15.78-10-32-16.08-47.46a51.94,51.94,0,0,0,12.81-.93,51,51,0,0,0,38.08-34.86,37.38,37.38,0,0,0,3.55,1.57c-1,7.32-1,15-1.33,22.3l-1.26,24.88c-.86,16.87-1.93,33.73-2.54,50.62a2.07,2.07,0,0,0,.07.6,1.53,1.53,0,0,0,.56,2c7.44,5.3,16,9.39,24.08,13.64s16.41,8.45,24.71,12.47q12.09,5.85,24.37,11.29c8.25,3.65,16.65,7.74,25.3,10.3a1.45,1.45,0,0,0,.94,0,29,29,0,0,1,9.51,4c3,2.08,4.63,4.88,7,7.51C811.91,887.84,808,892.7,806.65,895.21Z" style="fill:#fff"/><path d="M584.71,610.1a341.94,341.94,0,0,0-15.91,36.5c-4.53,12.63-9.53,26.07-11.44,39.4-.32,2.22,2.77,3.22,3.45,1,3.8-12.61,6.25-25.51,10.55-38a316.85,316.85,0,0,1,15.48-37.6C587.55,609.93,585.42,608.68,584.71,610.1Z" style="fill:#fff"/><path d="M555.93,699.73a1.26,1.26,0,0,0-.71-1.46,1.23,1.23,0,0,0-1.54.51s-.12.29-.12.31a7.9,7.9,0,0,0-.48.71,1.64,1.64,0,0,0,.32,1.86,1.36,1.36,0,0,0,1.32.35,1.59,1.59,0,0,0,1.16-1.15,2.48,2.48,0,0,0,0-1Z" style="fill:#fff"/><path d="M550.08,709.66c-2.79,5.34-4.32,11.38-5.54,17.25s-2.33,12.14-1.8,18.1c.13,1.41,2.42,2,2.68.36.94-5.85,1.14-11.76,2.3-17.59s3.19-11.4,4.66-17.16C552.74,709.28,550.76,708.35,550.08,709.66Z" style="fill:#fff"/><path d="M659.71,743a49,49,0,0,1-39.16-13.53,1.24,1.24,0,0,0-1.75,1.75A47.65,47.65,0,0,0,659.71,746C661.59,745.78,661.66,742.82,659.71,743Z" style="fill:#fff"/><path d="M627.25,620.55c-.08-1.63-2.58-1.65-2.55,0,.27,15,0,30.13-1,45.14s-3.57,29.88-4.7,44.87c-.13,1.69,2.55,2,2.94.4,3.49-14.34,4.36-29.74,5.2-44.43A424.12,424.12,0,0,0,627.25,620.55Z" style="fill:#fff"/><path d="M692.75,696.61c-10.6-28-22.69-55.28-34.46-82.75-.58-1.34-2.93-.37-2.39,1,10.94,27.81,21.57,55.74,33.69,83.07C690.38,699.72,693.45,698.45,692.75,696.61Z" style="fill:#fff"/><path d="M500.41,509.78l0,0a10,10,0,0,1-.44-3.15,4.84,4.84,0,0,1,.09-1l0,0a1.85,1.85,0,0,0-1.2-1.27c-5.77-2.05-13.3-2.79-19.15-.15,2.43-4.13,4.47-8.52,6.9-12.65q3.2-5.44,6.74-10.67a23.38,23.38,0,0,0,10.09,15.06,6.09,6.09,0,0,1,1.41-1.41,3.34,3.34,0,0,1,1.27-.69,1.83,1.83,0,0,0-.54-.64c-5.61-4.15-9.26-9.61-9.54-16.73a1.65,1.65,0,0,0-3.05-.83c-6.33,9.08-13.4,19.16-17,29.7a1.19,1.19,0,0,0,0,.73l-.14.17c-.47.61.07,1.42.67,1.64a2.14,2.14,0,0,0,1.21,0,1.47,1.47,0,0,0,.33,0c7.06-1.21,12.86-2.38,19.86.11a1.84,1.84,0,0,0,.71.11l.57.64a4.62,4.62,0,0,0,1.35,1.12Z" style="fill:#f2eb54"/><path d="M659.77,597.74a10.09,10.09,0,0,1-3.2-1,2.31,2.31,0,0,0-.24.22A42.66,42.66,0,0,1,640.71,608c-4.88,2-9.85,2.22-14.84,3.21-15.08-2.16-28.78-8-39-19.72-10.35-11.83-14.51-26.79-14.45-42.21,8.7,5.13,17.62,10.06,26.61,14.47a26.09,26.09,0,0,1-1-3.53,5.18,5.18,0,0,1-.08-.63c-10.5-6.25-21.53-12-32.47-17.36l-.26-.1c-7.08-4.64-14.92-8.53-22.18-12.69-8.84-5.06-17.69-10.91-27-15a1,1,0,0,0-1,1.7c8.18,6.08,17.64,10.85,26.43,16s17.56,11.23,26.86,15.26a1.41,1.41,0,0,0,1.1,0l.52.31c-5,32.94,22.51,65.87,55.76,67.31h.14c5.7.72,12.29-1.38,17.29-3.51A46.49,46.49,0,0,0,659.36,600,2.06,2.06,0,0,0,659.77,597.74Z" style="fill:#f2eb54"/><path d="M627.33,524.81a67.86,67.86,0,0,0-53.09,8,1.28,1.28,0,0,0-.53.61c-6-3.32-12-6.66-18-9.93q-10.49-5.69-21-11.32c-6.58-3.51-13.1-7.46-20-10.34a1.18,1.18,0,0,0-.39-.09,7.55,7.55,0,0,1,.26,1.22q0,.2,0,.42c0,.08,0,.15,0,.23s0,0,0,.06v1c6.34,4.12,13.34,7.41,20,11s13.52,7.26,20.29,10.87c13.65,7.26,27.49,14.23,41,21.7-.14-.61-.29-1.21-.46-1.81a4.82,4.82,0,0,1-.17-1.33c-6.42-3.39-12.8-6.87-19.16-10.39,14.73-7.73,31.82-10.58,48.11-6.69a54,54,0,0,1,22.26,10.74c6.72,5.66,10.26,12.58,13.24,20.66a1.78,1.78,0,0,0,.32.54,48.48,48.48,0,0,0,1.77-7.72C656.7,538.12,641.2,528.44,627.33,524.81Z" style="fill:#f2eb54"/><path d="M636.12,566.31a4,4,0,0,1,.77.14c4.27,1.28,8.64,2.08,12.87,3.34-5.83-3.85-12.69-6.59-18.92-9.71-6.05-3-12.19-6.84-18.61-9l-.07,0a4.18,4.18,0,0,1-.1.86c-.12.52-.28,1-.42,1.53,5.83,4,12.87,6.82,19.18,10C632.57,564.4,634.34,565.35,636.12,566.31Z" style="fill:#f2eb54"/></g><path d="M728.8,328.22c-17.68,4.71-32.15-8.46-38-24.08-6.23-16.6-4.73-34.79-8.31-51.95C679.73,239,673,222.66,659,218.05a17.14,17.14,0,0,0-7-.86,1.15,1.15,0,0,0,.83-1.47c-4.12-15.69-22.4-20.79-36.33-15.45-7.17,2.75-14.14,7.86-18.25,14.43-3.6,5.76-4.62,13.88.35,19.11a43.49,43.49,0,0,0-9.44,14.38l.07.06a3.63,3.63,0,0,1,.4.31,7.6,7.6,0,0,1,.87,1l.74.84c6.81-19.32,25.8-29.11,45.61-27.54a.64.64,0,0,0,.17-1.24c-13.43-2.93-27,1.65-36.74,10.56-7.44-13.14,7.32-26,19-29.72,12.38-4,26.6,1.09,31.14,13.91a1.23,1.23,0,0,0,1.11.86c-9.58,1.15-16.08,11.13-18.81,20.5-4.42,15.14-1.29,32.44,8.71,44.71l.14.13a4.23,4.23,0,0,0-.24.4.87.87,0,0,0,1.18,1.18c2.13-1.18,3.81-2.21,6.36-1.45a5.77,5.77,0,0,1,4,6.38c-.72,6.5-8.18,7.73-12.91,4.58a1,1,0,0,0-.9-.13,15.25,15.25,0,0,1-2.35-2.48,1.22,1.22,0,0,0-1.89-.24,46.85,46.85,0,0,0-11.38,29.82c-4.28-1.28-8.35-3-11.72-6.3-2.74-2.71-5.09-5.65-7.83-8.09,3.83-.54,7.75-4,10.11-6.76,2.83-3.26,5.19-7.67,5.36-12.05a1.14,1.14,0,0,0-.07-.46l.12-.11a1.22,1.22,0,0,0-1.18-2c-4.47,1-8.1,2.32-12.78,1.2a20.13,20.13,0,0,1-11-7,25.8,25.8,0,0,1-5.24-14.52l-1.43-1.11a3.16,3.16,0,0,1-.72-.53l-.43-.43a3,3,0,0,1-.36-.45c-.21,8.07,2.12,16.29,8.23,21.85,5.09,4.63,15.13,8.45,22,5.12a26.33,26.33,0,0,1-5.23,9.24c-2.68,2.89-6.21,4-9.13,6.37a.85.85,0,0,0-.12.14,18.68,18.68,0,0,0-6.23-3.1c-15.7-4.34-35.43,11.23-49.26-.39-8.59-7.23-8.08-19.58-3.43-28.81,4.76-9.44,13.18-15.71,20.72-22.76a1,1,0,0,0,.15-1.18,1,1,0,0,0-.23-1.56l-.8-.51c1.55-2.51,2.8-5,4.85-7.25a37.36,37.36,0,0,1,7.38-5.87c3-2,5.9-4.83,4.93-8.65a1.16,1.16,0,0,0-.16-.87c-6.61-11-24.5,4.39-29.15,10.45-.44.57.48,1.22,1,.75,4.58-4.36,20.17-18,26.06-10l.08.09c-.29,5.05-7.37,7.48-10.71,10.62a25.39,25.39,0,0,0-6.59,9.33,24.41,24.41,0,0,1-5.11-3.47,28.8,28.8,0,0,1-5.78-8,.86.86,0,0,0-1.11-.38.8.8,0,0,0-1.16-.19c-9,6.87-16.67,16.24-23.11,25.52a133.92,133.92,0,0,0-16.29,31.71c-3.91,11.07-6.32,23.57-1.43,34.74a36.15,36.15,0,0,0,21.5,19.28,41.74,41.74,0,0,0,31.63-2.52c-4.15,5.89-7,13.18-9.3,19.64a98.38,98.38,0,0,0-5.74,28.76C544,408.47,548.39,430.4,560,445c1.2,1.51,3.19-.42,2.49-1.92-3.91-8.47-8.23-16.47-10.72-25.53a96.1,96.1,0,0,1-3.42-27.43,91.26,91.26,0,0,1,9.83-40.05c1.94-3.84,4.41-7.44,6.3-11.29a1.33,1.33,0,0,0,.41-.86l.1-.21a.71.71,0,0,0-.73-1,1.3,1.3,0,0,0-1.26,0c-12.73,6.17-26.75,9.28-39.78,1.78-12.78-7.35-18-20.9-15.57-35.16,2.22-13.22,8.23-26.17,15.1-37.59,7.07-11.76,16-21.18,25.56-30.87,2.18,5.58,7.51,12.18,13.6,13.7-12.33,9-25.53,22.19-24.71,38.63.32,6.49,3.13,13,8.31,17.1,5.79,4.56,13.4,4.79,20.39,3.74,9.1-1.37,18.41-5.46,27.73-3.55,8.88,1.82,12.27,10.15,19.07,15a33.46,33.46,0,0,0,11,4.71c0,.08,0,.16,0,.24a3.26,3.26,0,0,1,1.36.39c.33.17.64.36.95.56,0-.19,0-.39,0-.58a74.61,74.61,0,0,1,9,2.7,50,50,0,0,1,19.68,14.78c10.11,12.23,13.77,27.12,14.42,42.38a2.66,2.66,0,0,1,.58.33l.47.35.4.13a2.4,2.4,0,0,1,2.3.42c-.65-25.6-11.75-52-36.95-61.69a98,98,0,0,0-9.87-2.92,48.38,48.38,0,0,1,8.35-25.89c1.86,9.3,7.26,19.86,14.55,25.86a25.18,25.18,0,0,0,12,5.67c5.51.86,11.41-1.88,16.75,0,4.72,1.62,7.41,6.72,11.09,9.79a21,21,0,0,0,11,4.63c10.47,1.27,20.57-4.06,28.85-10l.94-.33C731.31,330.38,730.66,327.72,728.8,328.22ZM699,337.76c-4.9-.87-8.33-3.57-11.64-7.1-2.42-2.59-4.88-5.27-8.28-6.54-4.25-1.58-8.59-.36-12.93,0a20.78,20.78,0,0,1-14.79-4.53,35.68,35.68,0,0,1-9.56-11.94c-2.32-4.42-3.6-9.34-6-13.69a.88.88,0,0,0-.16-.2l.19-.26a14.14,14.14,0,0,0,3.94,2.89c6.46,3.85,15.72.66,15.8-7.84a8.15,8.15,0,0,0-5.08-7.81,9.09,9.09,0,0,0-7.15.26c-8.59-12.2-12.06-27.35-8.12-41.93,1.91-7.06,5.68-15.18,12.77-18.3,8-3.52,16.4,1.78,21.41,7.9,20.55,25.11,6.25,62.57,24.87,88.8,6,8.39,15.88,14.93,26.19,15.13C713.77,336.18,706.79,339.14,699,337.76Z" style="fill:#fff"/><path d="M606,238.84a11.47,11.47,0,0,0-2,1.65c-.68.59-1.55,1.2-1.55,2.18a1.06,1.06,0,0,0,1,1c1,0,1.54-.88,2.12-1.61a11.7,11.7,0,0,0,1.57-2.09A.87.87,0,0,0,606,238.84Z" style="fill:#fff"/><path d="M612.2,242.32c-1.67.63-2.9,2.29-4.09,3.56-.69.73.22,2,1.11,1.44s1.51-1,2.23-1.54a7.07,7.07,0,0,0,2-1.87C613.85,243.14,613.12,242,612.2,242.32Z" style="fill:#fff"/><path d="M616.75,231.84a31.5,31.5,0,0,0-5.92-2.54c-1.11-.43-1.93,1.47-.82,1.94a31.59,31.59,0,0,0,6,2.34A1,1,0,0,0,616.75,231.84Z" style="fill:#fff"/><path d="M621.39,236.12a1.06,1.06,0,0,0-1.44,1.44c.82,1.43,1.94,2.58,2.56,4.14a14,14,0,0,1,.83,4.83c0,1.29,2.06,1.67,2.33.31C626.39,243.2,625.08,237.84,621.39,236.12Z" style="fill:#fff"/><path d="M602.92,247a14.26,14.26,0,0,0-3.89,3.37,1.1,1.1,0,0,0,.22,1.69,15.86,15.86,0,0,1,2.57,1.75c1,.88,2.51-.55,1.51-1.51a12,12,0,0,0-1.88-1.44,28.45,28.45,0,0,1,2.72-2.25C605.09,247.84,603.9,246.36,602.92,247Z" style="fill:#fff"/><path d="M605.56,260.78c-5.79-1-12,4-12.08,9.92a1,1,0,0,0,.52.9c.17.09.38.25.59.18.78-.27.9-.68,1.15-1.45a12.1,12.1,0,0,1,1.75-3.82c1.92-2.56,4.76-3.43,7.81-3.78C606.31,262.63,606.77,261,605.56,260.78Z" style="fill:#fff"/><path d="M560.16,236.86l1.29,1.27c.81-.52,1.6-1,2.43-1.52l-5.8-5.85-9.18-9.24c-2.7-2.72-5.61-5.52-7.27-9-1.88-4-2.28-9.23,1.44-12.29s10-.5,9,4.43a5.25,5.25,0,0,1-1,1.31,4.42,4.42,0,0,1-4.44,1.27,3,3,0,0,1-1.89-2.13q.58-2.83,2.46-.57a.9.9,0,0,0,1.79.18c.41-3.16-4.15-4.42-5.86-1.93-2.11,3.08,1.4,6.72,4.47,6.84,4.21.17,7.44-3.78,7.4-7.76,0-5.21-4.36-9.53-9.1-11-10.6-3.3-20.4,5.9-18.91,16.59.88,6.28,4.84,11.45,9,16,4.95,5.36,10.05,10.59,15.08,15.87l3.46,3.67a7.5,7.5,0,0,1,1.09-.79c.4-.24.83-.42,1.25-.64l.25-.13-.68-.71A6.51,6.51,0,0,0,560.16,236.86Zm-14.91-43.3a.5.5,0,0,0,0-.08,11.62,11.62,0,0,1,5.23,3.28,9.06,9.06,0,0,1,1,1.37c-.17-.16-.35-.31-.54-.45a7.14,7.14,0,0,0-6.46-1,1.68,1.68,0,0,1-.62-1.36C544,194.41,544.74,194.1,545.25,193.56Zm-5.68-.48a12.45,12.45,0,0,1,3.93,0,3.27,3.27,0,0,0-1.18,2,3.16,3.16,0,0,0,.56,2.26c-.26.14-.51.28-.75.44a11.85,11.85,0,0,0-1,.76C539,197.59,538.17,195.35,539.57,193.08Zm-3.8,1.34a11.12,11.12,0,0,1,2.22-1,4.69,4.69,0,0,0,1.81,6.36,9.24,9.24,0,0,0-1.11,1.67,4.94,4.94,0,0,1-4.22-1,5.81,5.81,0,0,1-1.65-3.68A11.8,11.8,0,0,1,535.77,194.42Zm-4,3.8c.28,2.81,3.46,5,6.33,4.71a10.35,10.35,0,0,0-.46,2.72,7.79,7.79,0,0,1-3.56.87,6.89,6.89,0,0,1-4.27-1.87A12.64,12.64,0,0,1,531.75,198.23Zm-1.61,10.21a14.6,14.6,0,0,1-.28-1.7,7.68,7.68,0,0,0,7.87,1.28,16.6,16.6,0,0,0,.42,2,7,7,0,0,1-3.59,2.42,17.13,17.13,0,0,1-2.89.2A19.17,19.17,0,0,1,530.14,208.43Zm6.07,10.79a36.65,36.65,0,0,1-3.56-4.81,8,8,0,0,0,2.87-.25,7.59,7.59,0,0,0,3.36-2,25.38,25.38,0,0,0,1.81,3.67.54.54,0,0,0-.16.2,5.28,5.28,0,0,1-1.61,2.26,5,5,0,0,1-2.69.89Zm4.49,4.87-1.37-1.44c-.73-.77-1.46-1.56-2.18-2.36a4.47,4.47,0,0,0,4.45-3,26,26,0,0,0,2.1,2.7l1.2,1.31a.87.87,0,0,0-1,.58,3.59,3.59,0,0,1-1.75,1.81A5.27,5.27,0,0,1,540.71,224.09Zm1.58,1.66a4.91,4.91,0,0,0,.81-.27,4.31,4.31,0,0,0,2.53-3.13,1,1,0,0,0,0-.26c1.16,1.26,2.34,2.5,3.53,3.73a7.68,7.68,0,0,1-1.95,2.31,8.46,8.46,0,0,1-1.72,1Zm7.8,8.17-3.37-3.52a7,7,0,0,0,3.84-3.12c1.25,1.29,2.52,2.56,3.8,3.83A8.59,8.59,0,0,1,550.09,233.92Zm5,5.24-3.22-3.37a7.6,7.6,0,0,0,4.19-3l2.8,2.76a7.29,7.29,0,0,1-1.69,2.4A5.86,5.86,0,0,1,555.09,239.16Z" style="fill:#f2eb54"/><path d="M601.46,275.23a37,37,0,0,0-4.34-4.6c-.8-.8-1.61-1.71-2.5-2.49-5.48-6.53-11.8-12.42-17.79-18.46l-1.24-1.25a26.86,26.86,0,0,1-2.64,2.28,9.41,9.41,0,0,1-2.17,2.34,7.89,7.89,0,0,1-1.55.86l-.14-.15a16.15,16.15,0,0,0-2.18,2.3c6.15,6.57,12.35,13.09,18.76,19.38a16,16,0,0,0,2.92,3c1.56,1.45,3.08,3,4.7,4.32a1.54,1.54,0,0,0,.52.29,4.83,4.83,0,0,1,.26-.79,8.38,8.38,0,0,1,.59-1.48,2.4,2.4,0,0,1,.26-.37c-.59-.58-1.21-1.13-1.82-1.69a12,12,0,0,0,2-1.23,8.91,8.91,0,0,0,2.51-2.68,18.24,18.24,0,0,0,1.52,1.5,3,3,0,0,1,.48-.22l.09,0a4.88,4.88,0,0,1,1.82-.71Zm-30.65-19.69a7.39,7.39,0,0,0,3.71-4.23l3.43,3.55a.79.79,0,0,0-.16.2,7.82,7.82,0,0,1-3.89,3.65Zm4.48,4.62A6.08,6.08,0,0,0,579,256q1.38,1.42,2.77,2.82a17.68,17.68,0,0,1-3.92,4.05ZM579,264a8.61,8.61,0,0,0,4-4q1.42,1.42,2.87,2.82a6.82,6.82,0,0,1-3.49,4.78C581.21,266.36,580.09,265.16,579,264Zm6.53,6.75-.15.08-1.88-2a5.4,5.4,0,0,0,3.67-4.74q1.24,1.18,2.51,2.33a11.8,11.8,0,0,1-2.4,3.13A9.5,9.5,0,0,1,585.49,270.72Zm2.71,2.64a1.2,1.2,0,0,1-.46.09l-1-1.09a11.52,11.52,0,0,0,1.86-1.5,10.53,10.53,0,0,0,2.35-3.33c.53.47,1.05.94,1.58,1.4.16.23.32.44.5.66a11.87,11.87,0,0,1-1.29,1.33,13.47,13.47,0,0,1-2.4,1.81A7.66,7.66,0,0,1,588.2,273.36Zm5.67,2.41a11.33,11.33,0,0,1-2,1l-.64.21-.86-.77-1-1,0,0a13.61,13.61,0,0,0,2.56-1.71,7,7,0,0,0,2.38-2.59l.81.89c.49.55,1,1.13,1.48,1.71A24.54,24.54,0,0,1,593.87,275.77Z" style="fill:#f2eb54"/><path d="M111.39,564.31c-4.91-8.21-15.32-14-23.74-17.86a81.87,81.87,0,0,0-29.2-7.27c-1.51-.1-1.5,2.23,0,2.35a80.71,80.71,0,0,1,37.73,12.66c5.17,3.36,14,8.86,14.32,15.81.31,6.24-5.4,8.18-10.71,8.85-5.33-6.36-15.87-8.73-24.55-9.21-4.52-.25-12.84.35-12.21,6.86.81,8.36,13,6.33,18.35,6.11s11.6.21,17.42-.53c1.79,2.91,2.39,6.6,1.11,11.24-4.29,15.49-22,18.31-35.55,20.16-1.46.2-1.13,2.79.35,2.6,15.16-1.87,34.87-5.81,38.16-23.74a16.46,16.46,0,0,0-1.24-10.73,23.55,23.55,0,0,0,5.78-1.93C113.49,576.62,114.79,570,111.39,564.31ZM74.87,580c-2.13.06-4.6.32-6.46-.91-2.29-1.52-2.75-5.05.15-6.18,2.64-1,5.68-.69,8.45-.48,6.68.5,14.58,2.39,19.33,6.72l-.3,0Q85.47,579.68,74.87,580Z" style="fill:#f2eb54"/><path d="M152.56,151.85c-4.47,9.19-9.94,20-20,23.64,3.4-6.46,2.86-14.31-3.48-19.25-6.77-5.29-16.79-3-18.38,6.1-1.67,9.56,5.9,17,15,17.22-8,6.88-19.9,6.59-30,6.2a1.27,1.27,0,0,0-.15,2.53c12,.61,25.67.88,34.31-8.91l.14-.18c13-2.39,19.93-15.38,25.19-26.47C156,151.1,153.34,150.25,152.56,151.85Zm-38.23,17.67c-2-4.9-.8-12,5.18-13.28,4.37-.9,8.84,2.19,11,5.82,2.74,4.67,1.27,10.34-1.87,14.43h0C122.79,177.37,116.7,175.28,114.34,169.52Z" style="fill:#f2eb54"/><path d="M90.38,928.85c-11.8,1.29-25.17,2.79-35.46-4.5a20.76,20.76,0,0,1-1.82-1.45,23.4,23.4,0,0,0,5.88-1c8.56-2.68,14.78-12,11.18-20.85-3.38-8.33-14.15-9.14-20.68-4.11-7.14,5.5-6.93,15.65-2.74,22.95-7.19-1.53-14.13-5.91-20-9.75-1.35-.87-2.59,1.28-1.26,2.15,7,4.57,14.91,9.45,23.29,10.48l.54.63c10.34,11.49,27.28,10.16,41.12,8.46C92.25,931.59,92.29,928.64,90.38,928.85ZM46.72,908.71c.23-5.86,3.95-10.83,9.82-12,5.39-1,10.65,1.77,11.69,7.4,1.12,6.06-2.55,11.9-8,14.42a20,20,0,0,1-9.55,1.81A17.67,17.67,0,0,1,46.72,908.71Z" style="fill:#f2eb54"/><path d="M478.8,920.27c4.38,6.86,14.4,12.25,22.54,16A99.8,99.8,0,0,0,530,944.28c1.5.2,1.63-1.64.15-1.85a95.78,95.78,0,0,1-36.82-13c-4.95-3.06-13.38-8.09-13.28-13.6.09-4.94,5.9-6,11.23-6.13,4.91,5.44,15.27,8.15,23.9,9.21,4.49.55,12.82.75,12.6-4.44-.28-6.66-12.53-6-17.91-6.27s-11.55-1.08-17.4-1c-1.6-2.44-2-5.39-.4-8.95,5.25-11.88,23-12.7,36.71-13.08a1,1,0,1,0-.19-2.08c-15.23.28-35.13,1.82-39.53,15.69a10.61,10.61,0,0,0,.57,8.56,28.07,28.07,0,0,0-5.88,1.06C477.48,910.38,475.77,915.52,478.8,920.27Zm37.39-9.47c2.12.12,4.61.11,6.38,1.23,2.19,1.38,2.42,4.2-.54,4.86-2.7.6-5.7.09-8.45-.29-6.63-.92-14.38-3-18.85-6.83h.3Q505.61,910.2,516.19,910.79Z" style="fill:#f2eb54"/><path d="M767.06,226.38c-11.54,2.78-24.61,6-35.74.05a20.76,20.76,0,0,1-2-1.21,23.4,23.4,0,0,0,5.7-1.78c8.15-3.75,13.14-13.74,8.43-22.1-4.41-7.83-15.19-7.26-21-1.44-6.38,6.36-4.88,16.4.2,23.11-7.33-.6-14.77-4.07-21.12-7.12-1.45-.7-2.41,1.6-1,2.29,7.52,3.64,16,7.47,24.44,7.43l.62.56c11.71,10.08,28.36,6.61,41.86,3.16C769.26,228.86,768.93,225.93,767.06,226.38ZM721.19,212c-.52-5.84,2.54-11.24,8.22-13.12,5.21-1.72,10.79.4,12.54,5.85,1.88,5.87-1,12.13-6.07,15.31a20,20,0,0,1-9.24,3A17.67,17.67,0,0,1,721.19,212Z" style="fill:#f2eb54"/><path d="M795.65,764.52c3.19,12.34,2.15,27-6.52,36.95a29.73,29.73,0,0,1-19.46,10,21.33,21.33,0,0,0,1.81-2.83c5.74-10.77-2-26.05-15.24-23.06a12.08,12.08,0,0,0-9.56,11.26c-.4,6.31,3.45,11.87,8.72,15a24.06,24.06,0,0,0,5.68,2.46,20.71,20.71,0,0,1-4,1.66c-6.83,2-14,.5-20.46-2.15a1.53,1.53,0,0,0-1.2,2.81c9.63,4.06,22.23,5,30.56-1.43,8.79.73,17.93-3,24.34-9.1,11.54-11.05,13-28.28,9-43C798.63,760.65,795,762.11,795.65,764.52Zm-40.24,24.7c7.34-2.92,14,2.72,14.72,10a14.64,14.64,0,0,1-5,12.12,20,20,0,0,1-9.16-3.43C749.84,803.66,746.64,792.71,755.4,789.22Z" style="fill:#f2eb54"/><path d="M786.25,523.62c0-.38-.09-.76-.15-1.13-1.15-6.91-6-13.26-13.08-14.75a15.88,15.88,0,0,0-17.36,7.81c-.8,1.49,1.44,2.81,2.27,1.33a13.44,13.44,0,0,1,18-4.81A15.3,15.3,0,0,1,783,523.53a26.09,26.09,0,0,0-4.62.56c-6.74,1.45-15.76,5.38-19.91,11.15-3.49,4.84-2,11.62,4.43,12.5,6.17.86,13.19-3.1,17.33-7.38a21.27,21.27,0,0,0,6.07-13.61,20.53,20.53,0,0,1,5.06,1c7.9,2.71,11.91,10.18,10.36,18.28-2.92,15.2-18.73,21.07-31.57,25.72-1.89.68-1.11,3.69.84,3,14.52-4.85,31.65-11.89,34.11-29.09C806.95,533,797.45,524.66,786.25,523.62Zm-18,20.23a13.21,13.21,0,0,1-4,.69c-5-.12-5.1-5.15-2.51-8.11,2.19-2.49,5.65-4.33,8.54-5.85a32.38,32.38,0,0,1,12.86-3.86,16.07,16.07,0,0,1-.38,2.68C781.13,536.37,775,541.86,768.28,543.85Z" style="fill:#f2eb54"/><circle cx="117.72" cy="371.62" r="2.58" transform="translate(-228.29 192.08) rotate(-45)" style="fill:#f2eb54"/><circle cx="165.52" cy="319.94" r="2.58" transform="translate(-177.75 210.75) rotate(-45)" style="fill:#f2eb54"/><circle cx="191.36" cy="221.19" r="2.58" transform="translate(-100.36 200.1) rotate(-45)" style="fill:#f2eb54"/><circle cx="211.19" cy="134.22" r="2.58" transform="translate(-33.05 188.65) rotate(-45)" style="fill:#f2eb54"/><circle cx="364.67" cy="167.38" r="2.58" transform="translate(-11.54 306.89) rotate(-45)" style="fill:#f2eb54"/><circle cx="388.77" cy="47.15" r="2.58" transform="translate(80.53 288.71) rotate(-45)" style="fill:#f2eb54"/><circle cx="488.05" cy="178.56" r="2.58" transform="translate(16.69 397.4) rotate(-45)" style="fill:#f2eb54"/><circle cx="721.5" cy="423.7" r="2.58" transform="translate(-88.28 634.27) rotate(-45)" style="fill:#f2eb54"/><circle cx="724.94" cy="261.55" r="2.58" transform="translate(27.39 589.22) rotate(-45)" style="fill:#f2eb54"/><path d="M262.54,770.2c5.18,2.15,10.71-2,11.08-7.3a1.72,1.72,0,0,0-.23-1,7.32,7.32,0,0,0-1.43-3.89c-3-4-9.7-4-12.75,0S258,768.3,262.54,770.2Zm-.41-10.5c1.85-1.95,5.66-1.84,7.21.44a4.35,4.35,0,0,1,.73,2,2,2,0,0,0-.23.81c-.21,2.84-3.77,5.3-6.42,3.81C261.07,765.41,260.23,761.7,262.13,759.7Z" style="fill:#fff"/><path d="M130.74,956.7c0,.05-.07.12-.11.18a35.48,35.48,0,0,0,1.26,4.87c.83,6.33,3.48,12.84,7.49,17.15l.13.12a2.18,2.18,0,0,0,.23.75l.22.19.3.21a2.62,2.62,0,0,1,.3.3h0l.13.14a2.33,2.33,0,0,0,1,.13c11.94-.76,23.82-1.6,35.8-1.53q9.18,0,18.35.59c5.69.34,11.76,1.62,17.42,1a2.14,2.14,0,0,0,.68-.19,2.85,2.85,0,0,0,2.47-2,7.34,7.34,0,0,0-.37-4.23c6.92.52,14.13-.06,20.88-.64a2,2,0,0,0,2-2,17.3,17.3,0,0,0-1.9-9.2c-1.6-3.07-4-4.33-6.27-6.52,9-10,12.23-24.75,5-36.32,5.56-1.56,12-4.36,16.25-8.66,0,6,1,12.34,1.52,18.19l1.78,21.48c.61,7.44.86,15,1.69,22.38.27,2.43.8,4.67,2.28,6.24a4.42,4.42,0,0,0,2.54,1.63l.16,0v.06h.21a2.11,2.11,0,0,0,1.1,0c2.43-.06,4.87-.2,7.26-.23,4.06-.06,8.25.15,12.23-.78a8.76,8.76,0,0,0,3-2.39c1.1-4.62-1-9.89-4.15-13.29-1.52-1.65-4.39-3.93-7.14-4.57.52-5.84-.14-11.9-.53-17.72-.2-3-.48-6.08-.92-9.1-.2-3.83-.28-7.62-.36-11.26q-.37-17-.66-34c5.74-7.12,11.1-14.57,16.63-21.85,3.23-4.25,6.49-8.47,9.68-12.75,2.27-3.05,5.09-6.12,6.81-9.57a9.6,9.6,0,0,0,12.73-1.61c1.45-.37,2.53-2.27,1.09-3.49-3.76-3.18-7.35-7.57-11.73-9.89-2.21-1.17-6-1.81-7.43.49l-.23-.06h-.5c-6.13,3.67-11.62,9.5-16.4,14.49a125.7,125.7,0,0,0-11.22,12.83l-.3-16.44c-.15-8.21-.79-16.57-.19-24.77s3.8-14.91,12.44-16.66c6.19-1.25,12.89-.64,18.6-3.79,9.22-5.1,12-17.87,6.33-26.54a1.68,1.68,0,0,0-.23-.28,1,1,0,0,0-.58-.74c-3.49-1.74-7.7-1.36-11.53-1.57-4.54-.26-9.17-.67-13.72-.54,1-9.13-1.13-19.75-8.24-25.82-8.62-7.36-21.43-7.51-32.11-6.08a11.66,11.66,0,0,0-3.92-.15c-6,.77-9.61,6.17-12.26,11-3.51,6.43-7.11,12.93-10.2,19.57-2.57,5.53-4.65,11.48-4.06,17.66.62,6.47,4.08,11.69,9.13,14.23-11.16,19.48-21.63,39.36-32.94,58.76q-15.3,26.25-31.44,52c.48-21.47,12.55-40.47,18.27-60.92,5-17.7,4.78-39.06-9.59-52.47a2.23,2.23,0,0,0-3.49,2.7c15.43,28.86-10.83,58.57-21.75,83.81A133.13,133.13,0,0,0,130.74,956.7ZM215.5,842.47c-2.77,7.39-9.27,7.66-14.33,12.41a9.16,9.16,0,0,0-3,6.4c-.14,3.54,2.14,6.84,1.47,10.36-1.72,9-13.46,8.17-15.76.07a2.59,2.59,0,0,0-1-1.43q4.15-7,8.23-14c6.1-10.49,12.24-21,18.2-31.57C214.73,829.09,218.21,835.24,215.5,842.47ZM244.21,740c1.09,4.47,2.63,8.88,3.17,13.51a64.15,64.15,0,0,1-.37,18.08c-1.82,10.65-9.39,24.6-22.47,21.44-6.36-1.54-9.31-7.64-9.23-13.77.09-6.7,3.55-12.73,6.59-18.49,2.87-5.43,5.57-11,8.69-16.28,1.44-2.43,3.3-5.32,6-6.46C239.16,736.93,242.82,737.33,244.21,740Zm63.36,36c-1.72.34-4.06.46-5.49-.52-2-1.39-1.54-3.49-2.3-5.4a20.67,20.67,0,0,0,5.93-.29A15.3,15.3,0,0,1,307.57,776ZM271.78,881.51q-.13-7-.26-14.07l-.08-4.62c4.6-5.55,8.48-11.69,13.48-17s11.14-9.63,16.34-14.75a8.76,8.76,0,0,1,2.42.09c1.73.44,3.09,1.86,4.37,3,2.25,2,4.47,4,6.65,6.12-2.27,1.76-5.94,1.71-8.74,0a1.47,1.47,0,0,0-1.88.26h0c-3.84,2.76-6.5,7.26-9.37,11s-5.58,7.34-8.37,11C281.51,868.86,276.52,875.11,271.78,881.51ZM136.07,959.79c-5.73-30.27-1.7-60.64,12.43-88.14,10.07-19.6,24-41.41,21.13-63.68,5.43,13.57,2.49,29.82-2.24,43.65-6.85,20-17.54,39.71-15.31,61.55a2.15,2.15,0,0,0,4,1.08q12-19.09,23.55-38.46c3,6.36,10.81,10,17.56,6.85a14.21,14.21,0,0,0,7.34-8.42,13.2,13.2,0,0,0,.48-5.7c-.39-3-2.86-6.87-.62-9.66,2.62-3.27,7.9-4.15,11-7.19a20.35,20.35,0,0,0,5.86-12.13c.81-7.34-3-15.39-9.65-18.8,4.34-7.81,8.56-15.68,12.56-23.66a2.29,2.29,0,0,0,.14-.35,17.44,17.44,0,0,0,6.92,0c11.34-2.18,17.3-13,19.21-23.52a66.93,66.93,0,0,0,.63-19c.49-6-.66-12.91-3.8-18.09,8.77-.26,17.68-.27,24.77,5.89,7.54,6.55,6.17,16.42,7.5,25.27a1,1,0,0,0,.64.76,2.15,2.15,0,0,0,1.48.85c4.42.59,9,.61,13.42.79l1.25.07c-1.84,2.93.59,7.29,3.12,9.09a8.65,8.65,0,0,0,5.32,1.56,5.69,5.69,0,0,0,2.79-.76,15.31,15.31,0,0,1-6.68,11c-6.76,4.31-15.63,2-22.89,5.07-13.33,5.54-11.49,22.63-11.3,34.36l.34,20.79c-4.7-4.57-13.75-3.27-17,3.37a11,11,0,0,0-1,6.11c.36,2.89,2.62,5.11,3,7.88.88,5.79-7,5-10.27,6.42a12.58,12.58,0,0,0-5,4,12.77,12.77,0,0,0-1,13.45c2.58,4.91,7.77,7.08,13,7.75s10.91.74,15.19-2.61a16.91,16.91,0,0,0,3.67-4.05c.05,16.06-.41,32.39,1.31,48.28,0,.44.1.89.16,1.33h0q0,.09,0,.18c0,5.81-.41,11.77.24,17.54a3,3,0,0,0,.38,1.17,1.15,1.15,0,0,0,.19.67c1.61,2.42,4.91,2.74,7,4.69,2.68,2.47,3.26,5.29,3.64,8.55-.45,0-.93.08-1.45.1-2.58.11-5.18,0-7.76.05-2.93,0-5.91,0-8.88,0l-.16-.13a2.52,2.52,0,0,0-.19-.18c-1.24-2-1.12-7.15-1.25-8.57-.28-3-.58-6-.85-9-.51-5.67-1-11.34-1.45-17-.51-6-1-11.94-1.53-17.9-.48-5.42-.46-11.26-2-16.51a1.46,1.46,0,0,0-2.8,0c-2.81,1.82-5.22,4.19-8.15,5.89a41.14,41.14,0,0,1-10.71,4.3,1.68,1.68,0,0,0-.87.51,1.28,1.28,0,0,0-1.09,1.83c2.75,6.63,4.75,12.49,2.75,19.71-1.76,6.36-6,11.3-8.45,17.28a1.7,1.7,0,0,0,1.41,2.3c1.05.82,2.34,1.44,3.29,2.25a12.78,12.78,0,0,1,4.47,9.39c-7,.42-14,.07-21,.2a8.73,8.73,0,0,0-1.63-1.78,13.45,13.45,0,0,0-4.1-3c-3.53-1.63-12.09-3.29-8.78-9,1.87-3.24,5.64-5.39,7.92-8.38,8.33-10.94,8.69-30.89-4-39.06a1.37,1.37,0,0,0-1.86,1.86c4.22,6.44,8,12.32,7.43,20.41-.6,8.36-5.27,13.65-10.92,19.19-3.9,3.82-6.4,9-2.52,13.83a14.7,14.7,0,0,0,5.88,4.11,46.94,46.94,0,0,1,5.75,2.47l.15,0c.45.86,1.28,1.66,1.73,2.53a19.58,19.58,0,0,1,1.11,3c-4.64-.89-9.7-.87-14.25-1.16q-8.73-.55-17.48-.65a271.84,271.84,0,0,0-35,1.53s0-.07,0-.11c-1.67-3.64-4-6.87-5.51-10.63-.71-1.76-1.3-3.57-1.89-5.37Zm131.11-95.57.3,18.33a1.8,1.8,0,0,0-.32.36c-2,3-3,6.83-5.66,9.4-3.34,3.26-9.07,2.92-13.39,2.1S239.21,891,239,886c-.21-5.75,4.69-7.64,9.32-8.81,5.83-1.47,9.19-5.43,6.69-11.4-1.82-4.34-4.41-8.94.14-12.79,4.15-3.5,9.21-.91,11.87,2.91l.12,7.45A1.6,1.6,0,0,0,267.18,864.21Z" style="fill:#fff"/><path d="M215.35,803.07c2.11,7.61,12.23,10.49,19.6,12.24a8.52,8.52,0,0,0-1.36,2.17,8.43,8.43,0,0,0,5.55,11.17c5,1.36,10.08-2.9,10-8a7,7,0,0,0-.7-2.9c1.75.2,3.5.37,5.25.48,5.42.33,11.81.74,17-1a1.79,1.79,0,0,0-.47-3.5c-4.59-.48-9.41.27-14.06.1a91.32,91.32,0,0,1-10.86-1,7.48,7.48,0,0,0-4.34-.78c-7.83-1.53-17.45-3.53-21.85-10.6A2.09,2.09,0,0,0,215.35,803.07Zm22.71,15a4.58,4.58,0,0,1,2.37-1.51c1.12.22,2.23.43,3.36.61a4.08,4.08,0,0,1,1.81,4.11c-.43,2.69-3.65,4.68-6.14,3.35A4.27,4.27,0,0,1,238.05,818Z" style="fill:#f2eb54"/><path d="M160.18,962.54c4.31,1.62,11.1,1,12.83-4.16,1.18-3.49-2.17-6.33-1.19-9.92,1.31-4.76,6.42-4.9,10.06-7,5-2.85,6-8.12,2.66-12.77s-8.57-6.25-13.85-7.16a5.75,5.75,0,0,0,.09-5.1,5,5,0,0,0-5.52-2.77C160,915,156,923.39,154.13,927.8,149.56,938.55,146,957.22,160.18,962.54Zm-4.25-24.2a46.35,46.35,0,0,1,4.26-11.49,30.42,30.42,0,0,1,4.06-5.84c.19-.21,1.8-2.09,2-2,.5.2-.08,2.37-.34,3.26a2.31,2.31,0,0,0-.08.26l0,.05c-.51,1.55.91,2.48,2.17,2.26,4.43,1,9.42,1.92,12.49,5.49,1.21,1.41,1.78,4.64.78,6.28-.58,1-2.57,1.59-3.55,2a42.35,42.35,0,0,0-4.63,1.83,11.15,11.15,0,0,0-5.36,6.3c-1,3,0,4.94.21,7.81.59,8.23-9.3,2.33-11.21-.92C154.05,949.07,154.77,943.21,155.93,938.34Z" style="fill:#fff"/></svg>